<?xml version="1.0" encoding="utf-8"?>
<!-- Generator: Adobe Illustrator 23.0.1, SVG Export Plug-In . SVG Version: 6.00 Build 0)  -->
<svg version="1.1" id="Layer_1" xmlns="http://www.w3.org/2000/svg" xmlns:xlink="http://www.w3.org/1999/xlink" x="0px" y="0px"
	 viewBox="0 0 360.2 275.6" style="enable-background:new 0 0 360.2 275.6;" xml:space="preserve">
<style type="text/css">
	.st0{fill:#1065E0;}
	.st1{fill:#FFFFFF;}
	.st2{fill:#110239;}
	.st3{fill:#99DDCC;}
	.st4{fill:#C6C7D7;}
	.st5{fill:#F88667;}
	.st6{fill:#0B50B9;}
	.st7{fill:#E45940;}
	.st8{fill:#ABADC4;}
	.st9{fill:#002987;}
	.st10{fill:#E5E6ED;}
	.st11{opacity:0.65;fill:#00A1CC;}
	.st12{fill:#E25B00;}
	.st13{fill:#FFF9FD;}
</style>
<circle class="st0" cx="148.8" cy="101.7" r="68.4"/>
<ellipse transform="matrix(0.2269 -0.9739 0.9739 0.2269 15.9605 223.5974)" class="st1" cx="148.8" cy="101.7" rx="58.4" ry="58.4"/>
<g>
	<path class="st2" d="M148.9,103.2L148.9,103.2c-0.6,0-1.2-0.5-1.2-1.1V55.2c0-0.6,0.5-1.1,1.1-1.1h0c0.6,0,1.1,0.5,1.1,1.1v46.8
		C150,102.7,149.5,103.2,148.9,103.2z"/>
	<path class="st2" d="M149.9,102.7L149.9,102.7c-0.3,0.6-1,0.8-1.6,0.5l-27.8-14.9c-0.6-0.3-0.8-1-0.5-1.5l0,0
		c0.3-0.6,1-0.8,1.5-0.5l27.8,14.9C150,101.5,150.2,102.1,149.9,102.7z"/>
</g>
<circle class="st3" cx="276" cy="65.1" r="38.8"/>
<circle class="st1" cx="276" cy="65.1" r="29.4"/>
<ellipse transform="matrix(0.3203 -0.9473 0.9473 0.3203 125.8699 305.6866)" class="st3" cx="276" cy="65.1" rx="21" ry="21"/>
<ellipse transform="matrix(0.1264 -0.992 0.992 0.1264 176.474 330.6426)" class="st1" cx="276" cy="65.1" rx="14.4" ry="14.4"/>
<path class="st3" d="M269.3,65.1c0,3.7,3,6.7,6.7,6.7c3.7,0,6.7-3,6.7-6.7c0-3.7-3-6.7-6.7-6.7C272.3,58.5,269.3,61.4,269.3,65.1z"
	/>
<g>
	<path class="st4" d="M317.7,148.9c7.7-2.3,15-2.5,17.2-11.5c1.7-7.1-4.8-12.8,0.5-18.1c3.2-3.2,8.6-5.5,9.3-10.4
		c0.7-5.1-6-7.6-5.4-12.5c0.5-4.1,6-5,3.9-9.9c-1.8-4.4-5.9-5.1-9-3.8c-4.1,1.7-4,5.7-6.6,8.7c-1.7,2-4.6,0.5-7.4,0.5
		c-2.8,0-6.3,0.6-8.5,2.1c-7.2,4.8-0.1,12.5-0.7,19.5c-0.6,6.8-10.3,3.8-14.6,9.3c-4.9,6.4,0.4,16,6.5,20.1
		C307,145.6,312.6,150.5,317.7,148.9z"/>
	<g>
		<path class="st1" d="M310,148c0,0,0.1,0,0.1,0c0.3,0,0.5-0.1,0.5-0.4c0-0.2,3.2-17.8,14.3-30.4c6.3-7.1,7.2-13.8,7.9-19
			c0.4-3.1,0.8-5.7,2.1-7.2c0.1-0.1,0.1-0.3-0.1-0.5c-0.2-0.2-0.4-0.2-0.5,0c-1.4,1.6-1.8,4.3-2.2,7.5c-0.7,5.2-1.6,11.8-7.8,18.7
			c-11.3,12.8-14.6,30.6-14.6,30.8C309.7,147.8,309.8,148,310,148z"/>
	</g>
	<g>
		<path class="st1" d="M324.4,116.9c0.2,0.1,0.4,0.1,0.5-0.1c0.1-0.2,0.1-0.4-0.1-0.6c-2.8-2.2-5-6.8-3.7-9.9
			c0.2-0.4,0.3-0.8,0.5-1.2c0.9-2,2-4.4,1-6.5c-0.5-1-1.4-1.9-2.8-2.6c-0.2-0.1-0.4-0.1-0.5,0.1c-0.1,0.2,0,0.4,0.3,0.5
			c1.2,0.6,1.9,1.3,2.3,2.2c0.8,1.8-0.2,4.1-1.1,6c-0.2,0.4-0.4,0.8-0.5,1.2C318.9,109.5,321.3,114.5,324.4,116.9
			C324.4,116.8,324.4,116.9,324.4,116.9z"/>
	</g>
	<g>
		<path class="st1" d="M326.5,118.2c1.4,0.8,2.8,1.1,4,0.9c1.9-0.3,3.5-1.9,4.6-4.5c0.1-0.3,0.2-0.5,0.4-0.9c0.7-1.8,1.8-4.5,3.5-5
			c0.5-0.1,1.1,0,1.7,0.4c0.2,0.1,0.4,0.1,0.4-0.1c0.1-0.2,0-0.4-0.2-0.5c0,0,0,0,0,0c-0.8-0.5-1.5-0.6-2.2-0.5
			c-1.9,0.5-3.1,3.3-3.8,5.3c-0.1,0.3-0.2,0.6-0.4,0.9c-1,2.4-2.5,3.8-4.2,4.1c-1.5,0.3-3.2-0.4-5-1.8c-0.2-0.2-0.4-0.1-0.5,0
			c-0.1,0.2-0.1,0.4,0.1,0.6C325.4,117.5,326,117.9,326.5,118.2z"/>
	</g>
	<g>
		<path class="st1" d="M309.9,139.7c0.5,0.2,1.1,0.4,1.7,0.4c0.3,0,0.5-0.2,0.5-0.4c0-0.2-0.2-0.5-0.4-0.5c-3.1-0.2-5.6-4.8-6.1-7.3
			c-0.2-1,0-2.4,0.2-3.8c0.4-2.5,0.8-5.1-1.1-6.7c-0.2-0.2-0.5-0.2-0.7,0c-0.2,0.2-0.2,0.5,0.1,0.6c1.5,1.3,1.1,3.6,0.8,5.9
			c-0.2,1.5-0.5,2.9-0.2,4.1C305,134.4,307,138.4,309.9,139.7z"/>
	</g>
	<g>
		<path class="st1" d="M313.7,141.3c0.5,0.2,1.1,0.4,1.7,0.5c3.4,0.3,7.4-2,9.3-3.7c1-0.9,1.7-2.4,2.5-3.9c1.2-2.4,2.5-4.9,4.4-4.9
			c0.2,0,0.4-0.2,0.4-0.4c0-0.2-0.2-0.4-0.4-0.4c-2.4-0.1-3.8,2.7-5.1,5.2c-0.8,1.5-1.5,2.9-2.3,3.7c-1.7,1.5-5.5,3.8-8.6,3.4
			c-1.2-0.1-2.2-0.7-2.9-1.6c-0.1-0.2-0.4-0.2-0.6-0.1c-0.2,0.1-0.3,0.4-0.1,0.6C312.3,140.4,313,140.9,313.7,141.3z"/>
	</g>
</g>
<path class="st0" d="M70,229.9c-6.7-4.3-24-7.9-22.5-18c1.2-8.6,17.6-12.2,13.1-20.8c-2.7-5.1-5.5-9.3-3.7-16.5
	c1.9-7.8,14.4-7.4,16.6-14.7c1.9-6.3-4.9-13.4,1.2-19c5.4-4.9,14.6-0.8,17.3,4.4c3.3,6.5-2.6,11.7-1.8,17.9c0.5,4,4.4,4.3,7.1,6.5
	c2.6,2,5.4,5.2,6.4,8.4c3.1,9.4-7.1,13.6-10.3,21.1c-3,6.9,6.5,8.1,6.9,14.6c0.5,7-7.9,13.2-14.5,15C81.2,229.9,74.2,232.6,70,229.9
	z"/>
<g>
	<path class="st1" d="M77.6,231.2c0,0-0.1,0-0.1,0c-0.2,0-0.4-0.3-0.3-0.5c0.1-0.2,5.4-16.8,1-34.6c-2.9-11.9-0.2-20.8,2.1-28
		c1.4-4.4,2.6-8.2,2-11.6c0-0.3,0.1-0.5,0.4-0.6c0.3-0.1,0.5,0.1,0.6,0.4c0.6,3.6-0.6,7.5-2,12.1c-2.2,7.2-5,15.9-2.1,27.5
		c4.4,18-1,34.9-1.1,35C77.9,231,77.7,231.2,77.6,231.2z"/>
</g>
<g>
	<path class="st1" d="M79,195.9c-0.2,0-0.4-0.1-0.5-0.3c0-0.2,0.1-0.5,0.4-0.5c4-0.9,8.7-4.7,9.2-9c0.1-0.5,0.1-1.1,0.2-1.7
		c0.2-2.9,0.5-6.4,2.8-8.3c1.1-0.9,2.5-1.3,4.2-1.2c0.3,0,0.4,0.2,0.4,0.5c0,0.3-0.3,0.4-0.6,0.4c-1.5-0.1-2.6,0.2-3.5,1
		c-1.9,1.6-2.2,4.9-2.4,7.6c-0.1,0.6-0.1,1.2-0.2,1.7C88.4,191,83.4,195,79,195.9C79,195.9,79,195.9,79,195.9z"/>
</g>
<g>
	<path class="st1" d="M76,196.3c-2,0.1-3.6-0.3-4.8-1.2c-2-1.5-3-4.3-3-8.1c0-0.4,0-0.8,0-1.3c0.1-2.7,0.3-6.9-1.5-8.7
		c-0.6-0.6-1.4-0.9-2.4-0.8c-0.3,0-0.5-0.2-0.5-0.5c0-0.3,0.2-0.5,0.5-0.5c0,0,0,0,0,0c1.3,0,2.3,0.3,3.1,1.1
		c2.1,2.1,1.9,6.5,1.8,9.4c0,0.5,0,0.9,0,1.3c-0.1,3.5,0.8,6.1,2.6,7.4c1.5,1.1,3.7,1.4,6.4,0.7c0.3-0.1,0.5,0.1,0.6,0.3
		c0,0.2-0.1,0.5-0.4,0.6C77.6,196.1,76.8,196.2,76,196.3z"/>
</g>
<g>
	<path class="st1" d="M81.4,224.1c-0.6,0.1-1.1,0-1.7-0.1c-0.2-0.1-0.3-0.3-0.2-0.5c0.1-0.2,0.4-0.3,0.6-0.3
		c2.8,0.8,7.1-2.4,8.7-4.5c0.7-0.8,1.2-2.1,1.7-3.4c0.9-2.4,1.8-4.9,4.2-5.6c0.3-0.1,0.5,0,0.6,0.3c0.1,0.2-0.1,0.5-0.4,0.5
		c-1.9,0.6-2.7,2.8-3.5,5c-0.5,1.4-1,2.7-1.8,3.7C88,221,84.5,223.8,81.4,224.1z"/>
</g>
<g>
	<path class="st1" d="M77.3,224.3c-0.6,0.1-1.2,0-1.8-0.1c-3.4-0.7-6.3-4.3-7.5-6.5c-0.6-1.2-0.7-3-0.8-4.9c-0.2-3-0.3-6.2-2.6-7
		c-0.2-0.1-0.3-0.3-0.2-0.6c0.1-0.2,0.4-0.3,0.7-0.3c2.8,1,2.9,4.6,3.1,7.8c0.1,1.8,0.2,3.5,0.7,4.6c1,2,3.8,5.5,6.9,6.1
		c1.2,0.3,2.4,0.1,3.4-0.5c0.2-0.1,0.5-0.1,0.6,0.1c0.1,0.2,0,0.5-0.2,0.6C78.9,224,78.1,224.3,77.3,224.3z"/>
</g>
<g>
	<path class="st2" d="M307.1,200.2c-2.9-4.3-12.2-10.8-8.7-16.4c2.9-4.8,13.6-2.7,13.1-9c-0.3-3.7-0.9-6.9,2-10.7
		c3.1-4.1,10.4-0.7,13.6-4.5c2.7-3.3,0.5-9.2,5.5-10.9c4.4-1.6,8.9,3.3,9.2,7c0.3,4.7-4.5,6.3-5.6,10.2c-0.7,2.5,1.5,3.7,2.6,5.6
		c1,1.9,1.9,4.5,1.7,6.6c-0.6,6.4-7.7,6.3-11.5,9.9c-3.6,3.3,1.7,6.5,0.4,10.4c-1.5,4.3-8.1,5.8-12.4,5.2
		C313.7,203,308.9,202.8,307.1,200.2z"/>
	<g>
		<path class="st1" d="M311.2,202.9C311.2,202.9,311.2,202.8,311.2,202.9c-0.2-0.1-0.2-0.3-0.1-0.4c0.1-0.1,7.5-8.6,9.5-20.3
			c1.3-7.8,5.2-12.4,8.4-16.1c1.9-2.3,3.6-4.2,4.1-6.4c0-0.2,0.2-0.3,0.4-0.3c0.2,0,0.3,0.2,0.3,0.4c-0.5,2.3-2.3,4.3-4.3,6.6
			c-3.2,3.7-7,8.2-8.3,15.8c-2,11.8-9.5,20.4-9.6,20.5C311.5,202.9,311.3,202.9,311.2,202.9z"/>
	</g>
	<g>
		<path class="st1" d="M321.1,182.3c-0.1-0.1-0.2-0.2-0.2-0.3c0-0.2,0.2-0.3,0.4-0.2c2.6,0.5,6.3-0.6,7.7-3c0.2-0.3,0.3-0.6,0.5-1
			c0.9-1.6,2-3.7,3.8-4.2c0.9-0.3,1.8-0.1,2.8,0.4c0.2,0.1,0.2,0.3,0.1,0.4c-0.1,0.1-0.3,0.2-0.4,0.1c-0.9-0.4-1.6-0.5-2.3-0.3
			c-1.5,0.5-2.5,2.4-3.4,3.9c-0.2,0.3-0.4,0.7-0.5,1C328,181.8,324,182.9,321.1,182.3C321.1,182.3,321.1,182.3,321.1,182.3z"/>
	</g>
	<g>
		<path class="st1" d="M319.3,181.8c-1.2-0.4-2-1.1-2.5-2c-0.8-1.4-0.7-3.3,0.3-5.5c0.1-0.2,0.2-0.5,0.4-0.8c0.8-1.6,2-4,1.3-5.6
			c-0.2-0.5-0.6-0.9-1.2-1.1c-0.2-0.1-0.2-0.3-0.2-0.4c0.1-0.2,0.3-0.2,0.4-0.2c0,0,0,0,0,0c0.8,0.3,1.3,0.8,1.6,1.5
			c0.7,1.8-0.5,4.3-1.3,6c-0.1,0.3-0.3,0.5-0.4,0.7c-0.9,2.1-1.1,3.8-0.3,5c0.6,1,1.8,1.7,3.6,2.1c0.2,0,0.3,0.2,0.2,0.3
			c0,0.2-0.2,0.3-0.4,0.2C320.2,182.1,319.7,181.9,319.3,181.8z"/>
	</g>
	<g>
		<path class="st1" d="M315.3,199.6c-0.4-0.1-0.7-0.3-1-0.5c-0.1-0.1-0.1-0.3,0-0.4c0.1-0.1,0.3-0.1,0.4,0c1.4,1.2,4.8,0.4,6.3-0.4
			c0.6-0.3,1.2-1,1.9-1.6c1.1-1.2,2.3-2.4,3.9-2.3c0.2,0,0.3,0.2,0.3,0.3c0,0.1-0.2,0.3-0.3,0.2c-1.3-0.1-2.3,1-3.4,2.1
			c-0.7,0.7-1.3,1.4-2,1.7C320.1,199.5,317.2,200.3,315.3,199.6z"/>
	</g>
	<g>
		<path class="st1" d="M312.8,198.7c-0.4-0.1-0.7-0.3-1-0.5c-1.8-1.3-2.7-4.2-2.7-5.8c0-0.9,0.4-1.9,0.8-3.1
			c0.7-1.8,1.4-3.8,0.3-4.8c-0.1-0.1-0.1-0.3,0-0.4c0.1-0.1,0.3-0.1,0.5,0c1.4,1.3,0.6,3.5-0.2,5.4c-0.4,1.1-0.8,2.1-0.8,2.9
			c0.1,1.5,0.8,4.2,2.5,5.4c0.6,0.5,1.4,0.7,2.2,0.6c0.2,0,0.3,0.1,0.3,0.2c0,0.1-0.1,0.3-0.3,0.3
			C313.9,198.9,313.3,198.9,312.8,198.7z"/>
	</g>
</g>
<g>
	<path class="st4" d="M181.6,173c7.2-0.7,12.9-1.5,14.2-8.8c0.6-3.8-0.7-6.7-4.4-9.4c-3-2.2-4.6-3-4.8-6.5c-0.4-5.6,3-10.5,0.3-16.2
		c-2.9-6.4-11.9-5-15.1-10.8c-2.9-5.3-3.9-11.7-11.4-12.7c-6.3-0.8-9.8,5.4-7.8,10.3c1.1,2.8,3.5,5,4.2,7.9c0.6,2.8-0.8,4.8-2.2,7
		c-3,5-4.3,10.4,1.2,14.7c3.3,2.6,5.9,4.9,4,8.6c-2,3.9-2.9,6.2,1.6,10c3.4,2.9,6.8,3.2,11.1,4c4,0.8,9.2,2.6,13.3,1.4L181.6,173z"
		/>
	<g>
		<path class="st1" d="M179.9,168.9c0.7-0.6,1.2-1.2,1.5-1.9c1.3-3-1.2-6.5-3.5-9.7c-1.1-1.6-2.2-3.1-2.7-4.4
			c-1.2-3.4-1.3-6.2-0.3-10.6c1.2-5.1,0.1-7.5-3.7-11.5c-3.2-3.4-6.2-7.1-6.8-10.4c0-0.3-0.3-0.4-0.7-0.4c-0.3,0-0.6,0.3-0.5,0.5
			c0.6,3.5,3.8,7.4,7,10.9c3.6,3.9,4.6,6,3.5,10.9c-0.8,3.7-1.1,7,0.3,11c0.5,1.3,1.6,2.9,2.8,4.5c2.2,3.1,4.6,6.5,3.4,9.1
			c-0.4,1-1.4,1.9-2.9,2.6c-0.2,0.1-0.4,0.4-0.2,0.5c0.1,0.2,0.4,0.2,0.7,0.1C178.7,169.7,179.4,169.3,179.9,168.9z"/>
	</g>
	<g>
		<path class="st1" d="M174.1,147.2c0.1-0.1,0.1-0.2,0.2-0.3c0-0.2-0.2-0.4-0.4-0.4c-2.6-0.1-4.1-2.3-5.8-4.7
			c-1.5-2.1-3.1-4.4-5.5-5.3c-0.3-0.1-0.6,0-0.8,0.2c-0.2,0.2,0,0.5,0.2,0.6c2.2,0.8,3.7,2.9,5.1,4.9c1.8,2.5,3.5,5,6.6,5.1
			C173.8,147.4,173.9,147.3,174.1,147.2z"/>
	</g>
	<g>
		<path class="st1" d="M175.1,153.9c0,0,0.1-0.1,0.1-0.1c0.3-0.6,0.5-1.1,0.7-1.6c0.3-0.8,0.5-1.5,1.4-2.3c0.5-0.4,1-0.8,1.4-1.1
			c1-0.7,2-1.5,2.7-2.8c0.9-1.9,1.2-4.5,1-7.5c0-0.4-0.2-1-0.3-1.7c-0.2-0.9-0.6-2.7-0.3-3c0.2-0.2,0.1-0.5-0.1-0.6
			c-0.2-0.1-0.5-0.1-0.7,0.1c-0.5,0.6-0.3,1.8,0.1,3.7c0.1,0.6,0.3,1.2,0.3,1.6c0.2,2,0.1,4.9-0.9,7.2c-0.5,1.1-1.4,1.7-2.3,2.5
			c-0.5,0.4-1,0.7-1.5,1.2c-1,1-1.3,1.8-1.6,2.7c-0.2,0.5-0.3,1-0.6,1.5c-0.1,0.2,0,0.4,0.3,0.5C174.7,154.1,175,154,175.1,153.9z"
			/>
	</g>
</g>
<path class="st0" d="M308.5,239.4c-6.8-4-12.1-7.3-10.5-15.8c0.8-4.3,3.1-6.8,7.6-8.2c3.6-1.1,5.4-1.4,6.9-4.9
	c2.3-5.6,0.8-11.8,5.1-16.5c4.8-5.2,12.8-0.7,17.7-5.3c4.3-4.1,7.2-9.9,14.7-8.4c6.5,1.3,8.3,8.6,4.9,12.9c-1.9,2.4-5,3.8-6.5,6.5
	c-1.5,2.6-0.6,5.2,0.2,8.1c1.7,6.5,1.5,12.9-5.7,15.4c-4.3,1.5-7.6,2.9-6.9,7.9c0.8,5.4,1.1,8.4-5,10.8c-4.5,1.8-8.2,0.5-12.9-0.5
	c-4.3-1-10.3-1.1-13.8-4.3L308.5,239.4z"/>
<g>
	<path class="st1" d="M311.7,235.4c-0.5-1-0.7-1.9-0.8-2.8c-0.2-3.9,3.5-6.7,6.8-9.2c1.7-1.3,3.3-2.5,4.1-3.7
		c2.3-3.1,3.3-6.2,3.8-11.1c0.5-5.7,2.3-7.7,7.2-10.4c4.1-2.3,8.2-4.9,9.7-8c0.1-0.2,0.5-0.3,0.8-0.2c0.3,0.1,0.5,0.5,0.3,0.7
		c-1.6,3.3-5.9,6-10.1,8.4c-4.8,2.6-6.4,4.4-6.9,9.9c-0.4,4.2-1.2,7.8-3.9,11.5c-0.9,1.2-2.6,2.5-4.3,3.8c-3.2,2.4-6.8,5.2-6.6,8.6
		c0.1,1.3,0.7,2.7,1.9,4.2c0.2,0.3,0.2,0.6,0,0.7c-0.2,0.1-0.5,0-0.7-0.2C312.5,236.9,312,236.2,311.7,235.4z"/>
</g>
<g>
	<path class="st1" d="M324.9,214.2c-0.1-0.1-0.1-0.2-0.1-0.3c0-0.3,0.3-0.4,0.6-0.3c2.6,0.9,4.8-0.8,7.3-2.7
		c2.2-1.7,4.4-3.4,7.2-3.4c0.3,0,0.6,0.2,0.7,0.5c0.1,0.3-0.1,0.5-0.4,0.5c-2.4,0-4.6,1.6-6.6,3.2c-2.5,1.9-5.1,3.9-8.2,2.8
		C325.1,214.4,325,214.3,324.9,214.2z"/>
</g>
<g>
	<path class="st1" d="M321.6,220.9c0-0.1-0.1-0.1-0.1-0.2c-0.1-0.8-0.1-1.4-0.1-2c0-1,0-1.8-0.6-3c-0.3-0.6-0.7-1.2-1-1.8
		c-0.7-1.2-1.5-2.4-1.6-4c-0.2-2.3,0.3-5.1,1.6-8.1c0.2-0.4,0.5-1,0.8-1.6c0.5-0.9,1.4-2.5,1.3-2.9c-0.1-0.3,0.1-0.5,0.3-0.5
		c0.3,0,0.5,0.1,0.6,0.4c0.3,0.8-0.3,1.9-1.3,3.7c-0.3,0.6-0.6,1.1-0.8,1.5c-0.8,2-1.7,5-1.5,7.7c0.1,1.4,0.7,2.4,1.5,3.5
		c0.4,0.6,0.8,1.2,1.1,1.9c0.7,1.5,0.7,2.5,0.7,3.5c0,0.6,0,1.2,0.1,1.9c0.1,0.3-0.1,0.5-0.4,0.4
		C321.9,221.3,321.7,221.1,321.6,220.9z"/>
</g>
<g>
	<path class="st2" d="M186.3,160.4c-7.8-1.2-13.9-2.4-15.5-10.9c-0.8-4.3,0.4-7.5,4.1-10.4c3-2.3,4.6-3.2,4.6-7.1
		c0.1-6-3.6-11.3-1.2-17.3c2.6-6.6,11.7-5.3,14.5-11.4c2.5-5.4,3.1-11.8,10.6-13.2c6.5-1.1,10.9,5,9.3,10.2
		c-0.9,2.9-3.3,5.3-3.7,8.4c-0.4,3,1.4,5.1,3.1,7.5c3.9,5.5,6.1,11.5,0.3,16.4c-3.4,2.9-6,5.5-3.5,9.9c2.7,4.7,4.1,7.5-0.7,11.9
		c-3.6,3.3-7.5,3.5-12.2,4.2c-4.4,0.7-10,2.7-14.5,1L186.3,160.4z"/>
	<g>
		<path class="st1" d="M187.9,155.5c-0.8-0.7-1.4-1.5-1.7-2.3c-1.6-3.5,0.8-7.5,3-11.1c1.1-1.8,2.1-3.5,2.5-4.9
			c1-3.8,0.9-7-0.5-11.7c-1.6-5.5-0.6-8,2.9-12.4c3-3.6,5.9-7.6,6.2-11c0-0.3,0.3-0.5,0.7-0.4c0.3,0,0.6,0.3,0.6,0.5
			c-0.3,3.7-3.3,7.7-6.4,11.5c-3.5,4.2-4.4,6.4-2.8,11.7c1.2,4.1,1.7,7.7,0.5,12.2c-0.4,1.5-1.5,3.2-2.6,5.1
			c-2.1,3.4-4.5,7.3-3,10.4c0.6,1.2,1.6,2.3,3.3,3.3c0.3,0.2,0.4,0.5,0.3,0.6c-0.1,0.2-0.4,0.2-0.7,0.1
			C189.2,156.6,188.5,156.1,187.9,155.5z"/>
	</g>
	<g>
		<path class="st1" d="M192.5,130.9c-0.1-0.1-0.2-0.2-0.2-0.3c-0.1-0.3,0.1-0.5,0.4-0.5c2.7-0.1,4.2-2.5,5.8-5.2
			c1.4-2.3,2.9-4.8,5.5-5.8c0.3-0.1,0.7,0,0.9,0.2c0.2,0.2,0.1,0.5-0.2,0.6c-2.3,0.9-3.7,3.2-5,5.4c-1.7,2.7-3.4,5.5-6.7,5.6
			C192.8,131.1,192.6,131,192.5,130.9z"/>
	</g>
	<g>
		<path class="st1" d="M191.9,138.4c-0.1,0-0.1-0.1-0.1-0.2c-0.4-0.7-0.6-1.3-0.9-1.8c-0.4-0.9-0.7-1.7-1.7-2.6
			c-0.5-0.5-1.1-0.9-1.6-1.3c-1.1-0.8-2.2-1.7-3-3.1c-1-2.1-1.5-4.8-1.5-8.1c0-0.5,0.1-1.1,0.2-1.8c0.1-1,0.4-2.8,0.1-3.2
			c-0.2-0.2-0.1-0.5,0.1-0.6c0.2-0.1,0.6-0.1,0.7,0.1c0.6,0.6,0.4,1.9,0.1,3.9c-0.1,0.7-0.2,1.3-0.2,1.7c0,2.2,0.2,5.3,1.4,7.7
			c0.6,1.3,1.5,1.9,2.6,2.7c0.6,0.4,1.1,0.8,1.7,1.4c1.2,1.1,1.6,2.1,1.9,3c0.2,0.5,0.4,1.1,0.8,1.7c0.1,0.2,0,0.5-0.2,0.6
			C192.3,138.6,192,138.5,191.9,138.4z"/>
	</g>
</g>
<g>
	<path class="st4" d="M49.8,242.5c-9.8-0.3-18.6,1.7-24-8.2c-4.3-7.8,1.7-16.6-6.3-21.2c-4.8-2.8-11.9-3.8-14.3-9.4
		c-2.5-5.8,4.8-10.8,2.5-16.5c-1.9-4.6-8.6-4-7.8-10.5c0.7-5.8,5.4-7.9,9.5-7.4c5.4,0.7,6.5,5.4,10.5,8.2c2.6,1.9,5.6-0.8,8.9-1.7
		c3.3-0.9,7.7-1.2,10.7-0.2c10,3.5,4,14.8,6.9,22.8c2.8,7.8,13.4,1.3,20.1,6.5c7.9,6.1,4.5,19-1.4,25.7
		C61.4,235.2,56.4,242.7,49.8,242.5z"/>
	<g>
		<path class="st1" d="M58.7,239.1c0,0-0.1,0.1-0.1,0.1c-0.3,0.1-0.6,0-0.8-0.3c-0.1-0.2-9.3-20-26.4-31.4
			c-9.6-6.4-12.8-14.1-15.3-20c-1.4-3.5-2.7-6.4-4.7-7.8c-0.2-0.1-0.2-0.4-0.1-0.6c0.1-0.2,0.4-0.3,0.5-0.2c2.2,1.5,3.5,4.5,5,8.1
			c2.5,5.9,5.6,13.4,15.1,19.7c17.4,11.5,26.8,31.6,26.9,31.9C59,238.7,58.9,238.9,58.7,239.1z"/>
	</g>
	<g>
		<path class="st1" d="M31.9,206.7c-0.2,0.2-0.4,0.2-0.6,0.1c-0.2-0.2-0.2-0.5,0-0.7c2.6-3.5,3.7-9.5,1.2-12.9
			c-0.3-0.4-0.6-0.8-1-1.3c-1.7-2.1-3.7-4.6-3.3-7.4c0.2-1.4,1.1-2.7,2.4-4c0.2-0.2,0.5-0.2,0.6,0c0.1,0.2,0.1,0.5-0.1,0.7
			c-1.2,1.1-1.8,2.1-2,3.3c-0.4,2.4,1.5,4.8,3.1,6.7c0.4,0.4,0.7,0.9,1,1.3C36.1,196.3,34.8,202.9,31.9,206.7
			C31.9,206.7,31.9,206.7,31.9,206.7z"/>
	</g>
	<g>
		<path class="st1" d="M29.8,209c-1.4,1.4-2.9,2.1-4.4,2.3c-2.4,0.2-4.7-1.2-6.9-3.9c-0.2-0.3-0.4-0.6-0.7-0.9
			c-1.4-1.9-3.6-4.8-5.6-4.8c-0.7,0-1.3,0.3-1.9,1c-0.2,0.2-0.4,0.2-0.5,0c-0.1-0.2-0.1-0.5,0.1-0.6c0,0,0,0,0,0
			c0.8-0.8,1.6-1.2,2.5-1.2c2.4,0,4.7,3,6.2,5c0.3,0.3,0.5,0.6,0.7,0.9c2,2.5,4.1,3.8,6.2,3.6c1.8-0.2,3.6-1.4,5.4-3.7
			c0.2-0.2,0.5-0.3,0.7-0.1c0.2,0.2,0.2,0.5,0,0.7C30.9,207.8,30.4,208.5,29.8,209z"/>
	</g>
	<g>
		<path class="st1" d="M56.2,229.2c-0.5,0.5-1.2,0.8-1.8,1c-0.3,0.1-0.6-0.1-0.7-0.3c-0.1-0.3,0.1-0.6,0.4-0.7
			c3.6-1.2,5.1-7.4,5-10.5c-0.1-1.3-0.7-2.8-1.4-4.4c-1.2-2.8-2.5-5.7-0.8-8.2c0.2-0.3,0.5-0.4,0.8-0.2c0.3,0.2,0.3,0.5,0.1,0.8
			c-1.4,2-0.2,4.6,0.9,7.2c0.8,1.7,1.5,3.3,1.5,4.8C60.3,221.4,59.2,226.8,56.2,229.2z"/>
	</g>
	<g>
		<path class="st1" d="M52.2,232.2c-0.5,0.4-1.2,0.8-1.9,1.1c-3.9,1.5-9.4-0.1-12.1-1.5c-1.4-0.7-2.8-2.3-4.2-3.9
			c-2.2-2.5-4.5-5-6.8-4.3c-0.2,0.1-0.5-0.1-0.5-0.3c-0.1-0.3,0.1-0.5,0.3-0.6c2.8-0.9,5.4,2,7.7,4.6c1.4,1.5,2.7,3,3.9,3.6
			c2.4,1.2,7.7,2.7,11.3,1.4c1.4-0.5,2.4-1.5,2.9-2.8c0.1-0.3,0.4-0.4,0.7-0.3c0.3,0.1,0.4,0.4,0.3,0.7
			C53.5,230.8,53,231.6,52.2,232.2z"/>
	</g>
</g>
<polygon class="st3" points="319.7,105.7 213.3,105.7 213.3,133.4 170.3,133.4 170.3,161 127.3,161 127.3,188.7 84.2,188.7 
	84.2,216.3 41.2,216.3 41.2,251.2 319.7,251.2 "/>
<g>
	<path class="st5" d="M259.7,47.1c0,0,0.9,2.1,0.8,2c0-0.1,1.3-0.6,1.4-0.6c0.1,0,1.2,0,1.7-0.1c0.5-0.1,0.8-0.4,1-0.5
		c0.2-0.1,0.4-0.4,0.2-0.5c-0.2-0.1-0.5,0.2-0.6,0.3c-0.1,0.1-0.6,0.1-0.6,0.1s0.2-0.1,0.6-0.2c0.4-0.2,1.1-0.4,1.2-0.6
		c0.1-0.1,0.1-0.4-0.2-0.3c-0.4,0.1-0.8,0.3-0.9,0.3c-0.1,0-0.7,0.3-0.7,0.3s0.6-0.2,0.8-0.3c0.2-0.1,0.8-0.3,1.2-0.5
		c0.4-0.2,0.3-0.6-0.1-0.6c-0.3,0-1.1,0.5-1.3,0.5c-0.1,0-0.7,0.3-0.7,0.3s0.7-0.3,0.8-0.4c0.1-0.1,0.9-0.4,1-0.6
		c0-0.1,0-0.3-0.3-0.3c-0.3,0.1-0.8,0.2-1,0.3c-0.2,0.1-1.3,0.6-1.5,0.6c-0.2,0-0.5,0-0.5-0.3l-0.4-0.7c0,0-0.3,0.1-0.4,0.8
		C261,46.3,260.5,46.8,259.7,47.1z"/>
	<g>
		<g>
			<path class="st6" d="M236.1,55.4c0-1.7,1.4-3.2,3.1-3.4c2.8-0.4,8.1-1.2,9.7-1.6c2.2-0.5,11.2-3.5,11.2-3.5l1,2.4
				c0,0-9.8,4.9-11.6,5.3c-1.8,0.4-10.8,3.6-12.6,2.6C236.3,56.7,236.1,56.1,236.1,55.4z"/>
		</g>
	</g>
	<path class="st5" d="M236.5,44.2c0.1,0.1,0.1,0.1,0.2,0.2c0.5,0.5,1,1,1.6,1.4c0.4,0.2,0.9,0.4,1.2,0.6c0.1,0.1,0.3,0.2,0.4,0.3
		c-0.2,1-0.6,3.7-0.6,4.7c0,0-3.2-0.2-4.4-1.5C234.9,49.8,236.3,46.3,236.5,44.2z"/>
	<path class="st7" d="M238.2,49.6c-0.2-0.9-0.7-1.8-1.5-2.4c-0.3-0.2-0.5-0.4-0.8-0.6c0.2-0.8,0.4-1.7,0.5-2.4
		c0.1,0.1,0.1,0.1,0.2,0.2c0.5,0.5,1,1,1.6,1.4c0.4,0.2,0.9,0.4,1.2,0.6c0.1,0.1,0.3,0.2,0.4,0.3c-0.2,1-0.6,3.7-0.6,4.7
		c0,0-0.6,0-1.3-0.2C238.3,50.7,238.4,50.1,238.2,49.6z"/>
	<path class="st2" d="M238.3,101.7c0,0,0.1,3.2,0.6,3.7c0.5,0.4,6.9,0.6,7.4,0c0.6-0.6,0.2-1.6-1.1-2c-1.5-0.4-2.2,0-3.1-0.4
		c-0.9-0.4-0.7-1.8-0.7-1.8L238.3,101.7z"/>
	<path class="st2" d="M222.4,101.6c0,0-0.5,3.1,0,3.6c0.5,0.5,7,1,7.6,0.4c0.6-0.6,0.3-1.6-1.1-2c-1.5-0.5-2.2-0.2-3.1-0.5
		c-0.7-0.3-0.2-1.8-0.2-1.8L222.4,101.6z"/>
	<g>
		<path class="st4" d="M227.2,83.6c-0.1-8.9,0.9-15,1.3-17.9c1.1,0,2.1,0.1,3.2,0.6c2,0.9,3.9,1.7,5.9,2.6c-1.6,3.3-5.1,14-5.5,16.3
			c-0.5,2.8-6.4,17.1-6.4,17.1l-3.5-0.4C222.2,99.5,227.2,84.3,227.2,83.6z"/>
		<path class="st8" d="M234.4,67.6c1,0.5,2.1,0.9,3.2,1.3c-1.6,3.2-4.4,12.2-5.1,14.5c-0.5-1.5-2.9-5.1-3.8-9.1
			c-0.6-2.7-0.7-5.4-0.3-8.1c0,0,0,0,0,0C230.4,66.4,232.3,66.6,234.4,67.6z"/>
		<path class="st4" d="M231.8,67.1c1.4,0.5,3.9,1.1,5.8,1.8c1.3,3.3,5.2,11.2,5.4,14.8c0.2,3.9-1.1,18.8-1.1,18.8h-4.1
			c0,0-0.4-16.8-0.9-17.8c-1.9-3.6-3.9-6.4-5.1-8.6c-2-3.7-2.6-6.1-3-7.8c-0.2-0.8-0.8-3.3,0.5-4.1
			C230.3,64.4,230.6,66.7,231.8,67.1z"/>
	</g>
	<g>
		<path class="st6" d="M239,69.7c0,0-3.4,1.4-6.8,1.1c-2.5-0.2-3.8-0.3-5.2-1.1c0,0,1.6-12.1,3.3-15.9c1.8-3.8,4.7-4.5,4.7-4.5
			s2.3,1.3,4.2,1.3c0,0,0,7.4-0.2,10.4C239,63.9,239,69.7,239,69.7z"/>
		<path class="st9" d="M239.2,59.9c0-0.3,0-0.7,0-1c0,0,0-0.1,0-0.1c0-0.3,0-0.7,0-1.1c0-0.1,0-0.1,0-0.2c0-0.4,0-0.8,0-1.2
			c0,0,0,0,0,0c-0.2,0-0.3,0-0.5,0c-1.2-0.2-2.2-0.9-3.2-1.5c-0.2-0.1-0.4-0.2-0.5-0.3c-0.2,1.6,0.5,3.5,0.8,4.8
			c0.9,3.5,1.3,7.9,0.6,11.3c1.5-0.3,2.6-0.7,2.6-0.7s0-5.8,0.1-8.7c0-0.3,0-0.6,0-0.9C239.2,60,239.2,60,239.2,59.9z"/>
	</g>
	<path class="st5" d="M234.8,41.2c0,0,1.4-2.9,3.2-2.8c1.8,0.1,3,0.4,3.3,1.1c0.2,0.7,0.7,2.7,1.1,3.4c0.5,0.7,1.5,1.7,1.5,2
		c0,0.3-1.1,0.4-1.1,0.6c-0.1,0.1-0.6,2.5-1,2.8c-0.4,0.2-3.9-1.1-4.4-2.2C236.7,45,234.7,43,234.8,41.2z"/>
	<path class="st2" d="M238.6,41.4c0.2,0,0.4,0.1,0.5,0.2c0.3,0,0.5,0.1,0.8,0.1c0.5,0.1,1.1,0.2,1.6,0c0.8-0.3,0.5-1,0.9-1.6
		c0.2-0.3,0.6-0.3,0.7-0.6c0.2-0.3,0.2-0.7,0.2-1c0-0.8-0.8-0.9-1.5-1.1c-0.7-0.2-0.8-0.6-1.2-1.2c-0.9-1.4-2.1,0.5-3.1,0.4
		c-0.5-0.1-1-0.4-1.5-0.1c-0.4,0.2-0.7,0.7-1,1c-0.3,0.4-0.6,0.2-1,0.4c-0.3,0.1-0.7,0.4-0.9,0.7c-0.5,0.6-0.8,1.4-0.7,2.2
		c0.1,0.6,0.7,1,0.7,1.7c0,0.5,0,1.2,0.3,1.7c0.4,0.7,1.2,0.8,1.8,1.3c0.5,0.5,1.3,0.8,2,0.6c0.1-0.5,0-1.4-0.4-1.6
		c-0.2-0.1-0.4-0.1-0.7-0.3c-0.5-0.4-0.2-1.5,0.8-1.3c0.6,0.1,0.8,1.7,1.5,1.4c0.5-0.2-0.1-1-0.2-1.3c-0.2-0.4-0.3-1.3,0.1-1.6
		C238.4,41.5,238.5,41.4,238.6,41.4z"/>
	<path class="st5" d="M253.9,69.8c0.2,0,0.4-0.1,0.5,0c0.3,0.1,0.8,0,1-0.1c0.5-0.2,1.2-0.5,1.7-0.4c0.3,0.1,2.1,0.5,1.6,1.2
		c-0.1,0.1-0.3,0.2-0.3,0.2c-0.2-0.1-0.7-0.3-0.7-0.3s0.4,0.1,0.5,0.2c0.1,0,0.2,0.1,0.2,0.2c0.1,0.2-0.1,0.5-0.2,0.5
		c-0.2,0.1-0.3-0.1-0.4-0.2c0,0,0,0,0,0c0.1,0.1,0.4,0.2,0.2,0.5c-0.2,0.4-0.3,0.2-0.5,0.1c-0.1,0-0.1,0-0.2-0.1
		c0.1,0,0.3,0.2,0.4,0.2c0.2,0.1-0.2,0.6-0.5,0.6c-0.2,0-0.7-0.3-0.8-0.3c-0.1,0-0.3,0-0.4,0c-0.4,0-0.8-0.1-1.2-0.2
		c-0.2-0.1-0.5-0.2-0.7-0.3c-0.4-0.2-0.9-0.6-1-0.7C253.5,70.5,254,70.4,253.9,69.8z"/>
	<path class="st6" d="M253.3,72l1.4-2.8c0,0-7.1-4.5-9.6-7.1c-2.6-2.6-5.4-7.9-7.3-8.2c-2-0.3-3.9,0.8-2.8,3.5
		c1.1,2.7,6.9,6.4,8.1,7.6C244.2,66.1,252.1,71.4,253.3,72z"/>
</g>
<path class="st3" d="M249.7,18.1c0.8-0.2,3.6-1.2,4.9,3.9c1.3,4.9,2.5,11.4,2.5,11.4s-4.5-4.9-7.5-8.8
	C246.3,20.3,248.9,18.4,249.7,18.1z"/>
<path class="st2" d="M253.5,22.4l4.1,5.7c1.2,1.7,2.3,3.5,3.3,5.4l15.6,32.3l-19-27.5c-2.1-3.1-3.8-6.5-4.8-10.1l-1.3-4.4
	C252.2,23.4,252.9,23,253.5,22.4z"/>
<path class="st3" d="M257.8,33.8c0,0,4.5-8.6,2.3-15c-2.2-6.3-7.8,4.3-7.8,4.3L257.8,33.8z"/>
<path class="st3" d="M257.9,33.8c0,0-9.7-1.4-13.5-6.9c-3.8-5.5,8.1-3.8,8.1-3.8L257.9,33.8z"/>
<path class="st5" d="M261.6,47.2c0.1,0,1.6-0.4,1.7-0.4c0,0-0.6-1.2-0.6-1.2c0-0.3,1.2-0.4,1.5-0.5c0.8-0.4,0.5-0.9,0.1-0.8
	c-0.2,0.1-0.8,0.2-1,0.3c-0.2,0.1-0.6,0.1-0.8,0.1c-0.2,0-0.8,0.6-1,0.7c-0.2,0.1-0.4,0.7-0.4,1.1C261,46.9,261.4,47.3,261.6,47.2z"
	/>
<path class="st2" d="M270.1,215.5l0.5,50.4c0,2.6,0.8,4.1,4.5,4.6c4.7,0.6,6.1-0.2,6.8-1.5c1.3-2.4,14-50.6,16.1-53.9
	C300.1,211.9,270.1,215.5,270.1,215.5z"/>
<path class="st4" d="M317.3,198.1c2.6,0,5,1.8,5.6,4.4c0.3,1.5,0.6,3.5,0.6,5.9c0,2.9-0.2,4.7-0.9,6.3c-0.9,1.9-2.8,3.1-4.9,3.2
	c-10.2,0.4-47.1,1.8-54.8,3.6c-9,2.1-38.9,15.4-38.9,15.4l5.7-67.4c0,0,27.5,22.3,45,25.8C288.3,197.9,308.8,198.1,317.3,198.1z"/>
<path class="st6" d="M298.5,218.6c-3.8,0.2-7.8,0.4-11.7,0.6c2.4-7.9,1.5-16.9,0.2-22.3c3.9,0.4,7.9,0.6,11.7,0.8
	C300.6,205.4,300.3,212.6,298.5,218.6z"/>
<path class="st10" d="M194.7,200.9c-0.2,24.4,11.4,44.2,25.9,44.3c14.5,0.1,26.4-19.6,26.6-43.9c0.2-24.4-11.4-44.2-25.9-44.3
	C206.8,156.8,194.9,176.5,194.7,200.9z"/>
<path class="st2" d="M196.7,200.9c-0.2,20.7,9.7,37.6,22.1,37.7c12.3,0.1,22.5-16.6,22.6-37.4c0.2-20.7-9.7-37.6-22.1-37.7
	C207,163.4,196.8,180.2,196.7,200.9z"/>
<path class="st3" d="M223.8,204.7c-0.5-7.4,4.3-13.8,10.8-14.2c2.2-0.2,4.3,0.4,6.2,1.5c0.4,3,0.7,6,0.6,9.2
	c0,5.5-0.8,10.7-2.1,15.4c-0.9,0.3-1.8,0.6-2.8,0.6C230,217.7,224.3,212.1,223.8,204.7z"/>
<g>
	<path class="st5" d="M262.8,177.7c0.1-0.8,0.1-1.5-0.3-2.3c0.4,0.1,0.9,0.1,0.9-0.1c0-0.3-0.1-0.7,0.1-0.7c0.2,0,0.4,0.2,0.6,0.3
		c0.4,0.3,0.8,0.3,1.3,0.3c0.2,0.5,0.6,1.3,0.3,1.9c-0.1,0.3-0.9,0.2-1.3,0.3C263.9,177.7,263.2,177.7,262.8,177.7z"/>
	<g>
		<path class="st1" d="M273.6,153.9c0,0,3.2-0.2,7.6,1.9l-2,8.9c0,0-2.1-1.3-5-1.1L273.6,153.9z"/>
		<path class="st4" d="M275.7,158.6c0-1.5-0.1-3-0.1-4.5c-1.2-0.2-2-0.2-2-0.2l0.6,9.7c0.8-1.3,1.2-1,1.4-1.1
			C275.6,161.2,275.7,159.9,275.7,158.6z"/>
		<path class="st1" d="M255.8,154.4c0,0,11.6-4.6,19.2-3l0.5,11.1c0,0-6.8-1.5-16.1,2.6L255.8,154.4z"/>
		
			<rect x="259.9" y="153.6" transform="matrix(0.9447 -0.3281 0.3281 0.9447 -40.5535 94.7079)" class="st2" width="1" height="27.9"/>
	</g>
	<path class="st6" d="M264.8,177.8v-3.1c0,0,9.4,0.1,13.3-1.1c3.9-1.1,9.2-5.8,11.3-5c2.1,0.7,3.4,2.9,0.8,4.9
		c-2.6,2-8.8,3.8-11.5,4.2C276.9,178,266.3,177.8,264.8,177.8z"/>
	<path class="st9" d="M280.5,175.8c3.3-1.4,6.4-4.4,9.1-7.2c2,0.8,3.2,2.9,0.6,4.9c-2.6,2-8.8,3.8-11.5,4.2c-0.9,0.1-4,0.2-7,0.1
		C274.8,177.6,277.8,177,280.5,175.8z"/>
	<path class="st2" d="M280.6,214.3c0,0,1.8,3,1.6,3.7c-0.3,0.7-6.6,4.4-7.5,4.1c-0.9-0.3-1-1.3,0.1-2.3c1-0.9,2-1.2,2.7-2.1
		c0.6-0.8,0-2.8,0-2.8L280.6,214.3z"/>
	<path class="st2" d="M291.3,189.1c0,0-1.3,1-2.6,0.9c-1.3-0.2-14.5,1.2-15.8,2.3c-1.3,1.1,4.2,23.3,4.2,23.3l4.6-0.8
		c0,0-1.6-16.2-1.4-16.4c0.3-0.1,7.2-0.1,18.9-0.1c2.9,0,6.1-6,2.4-10.2L291.3,189.1z"/>
	<path class="st5" d="M289.3,164.4c0.5-0.2,0.9-0.5,1.2-0.8c0.2,1.4,0.7,3.8,2.1,5.1c0,0-2.8,1.2-5.2,0.7c0,0,0.3-3.2-0.2-4.7
		C287.9,164.7,288.6,164.7,289.3,164.4z"/>
	<path class="st7" d="M290.7,168.2c-0.4-1.4-1.9-2.3-3.3-2.3c0-0.5-0.1-0.9-0.2-1.3c0.7,0,1.4,0,2.1-0.3c0.5-0.2,0.9-0.5,1.2-0.8
		c0.2,1.4,0.7,3.8,2.1,5.1c0,0-0.7,0.3-1.7,0.5C290.8,168.9,290.8,168.6,290.7,168.2z"/>
	<path class="st5" d="M290.1,156.7c0,0-3.4-1.1-4.4-0.4c-1.1,0.7-1.9,2.8-1.7,4c0.2,1.2-1.2,2.6-1.3,3.1c0,0.4,1.1,0.6,1.1,0.7
		c0,0.1,0.1,2.4,1.6,2.7c2.1,0.5,4.9-1.1,5.8-2.4C292.1,163.2,293.2,157.4,290.1,156.7z"/>
	<path class="st2" d="M283.8,156.8c0.2-0.2,0.6-0.5,0.7-0.7c0.1-0.2,0.1-0.4,0.3-0.6c0.4-0.5,0.5-0.9,2-1.4c1.3-0.4,3,0.1,4.1,0.9
		c0.4,0.3,0.7,0.7,1,1.1c0.1,0.1,0.3,0.5,0.2,0.6c-0.1,0.2-0.6,0.3-0.7,0.4c-0.3,0.2-0.5,0.4-0.8,0.6c-1.5,1.2-3.9,2.6-5.6,0.9
		c-0.2-0.2-0.4-0.5-0.6-0.7c-0.3,0.7-0.5,1.5-0.5,2.2c0,0-0.6-0.4-0.7-1.1C283,157.9,283.4,157.3,283.8,156.8z"/>
	<path class="st2" d="M290.9,156.7c0.4-0.2,1.2-0.1,1.6-0.1c0.9,0.2,1.4,0.8,1.5,1.7c0.1,0.5,0.2,1.1,0.2,1.6c0,0.9-0.1,1.5-0.4,2.4
		c-0.3,0.8-0.7,1.6-1.4,2.2c-0.6,0.5-1.8,1.2-2.4,0.9c-0.2-0.1-0.6-1.7-0.5-2.1c0.1-0.4,0.3-0.4,0.6-0.6c0.5-0.3,1.1-0.9,0.7-1.6
		c-0.6-0.9-1.6-0.5-2,0.8c0,0-0.4,0.7-0.6,0.6C288,162.5,287,158.8,290.9,156.7z"/>
	<path class="st7" d="M290.5,161.3c0,0-0.6-0.2-1,0.3c-0.4,0.5-0.2,1.2,0.2,0.9c0.4-0.3,0.2-0.5,0.3-0.8
		C290.1,161.5,290.3,161.4,290.5,161.3z"/>
	<path class="st6" d="M303.2,187.9c0,0-4.8,3.7-14.6,2c0,0,0-2.8-0.8-5.6s-2.1-8.2-2.1-11c0-3.2,1.7-4.7,1.7-4.7s1.9,1.7,4.6-0.5
		c0,0,5.2,1.2,7.7,7.2C302.2,181.3,303.2,187.9,303.2,187.9z"/>
	<path class="st9" d="M291.3,172.8c2.5,2.8,0.1,9.5-3.1,13.3c-0.1-0.6-0.2-1.1-0.4-1.7c-0.4-1.5-1-3.6-1.4-5.8
		c0.9-0.5,1.6-1.3,2.1-2.5C289.4,173.7,290.1,172.1,291.3,172.8z"/>
	<path class="st5" d="M270.7,191.7c-0.4,0.3-0.7,0.6-1.2,0.6c-0.2,0-0.4,0-0.6,0.2c-0.2,0.1-0.5,0.2-0.7,0.2
		c-0.2,0.1-0.5,0.1-0.6,0.3c-0.2,0.2,0.2,0.3,0.4,0.3c0.3,0,1-0.5,1.2-0.3c0.2,0.2-0.7,0.7-0.9,0.8c-0.4,0.2-0.8,0-1.2,0.1
		c-0.3,0-0.4,0.1-0.2,0.3c0.1,0.2,0.4,0.2,0.6,0.2c0.4,0,0.9,0,1.3-0.2c-0.3,0.2-0.9,0.3-1.2,0.3c-0.2,0-1.3-0.1-1.3,0.3
		c0,0.8,2.3,0.3,2.6,0c-0.4,0.2-0.8,0.3-1.2,0.4c-0.2,0.1-0.8,0.2-0.5,0.5c0.5,0.5,1.6-0.3,2.1-0.6c-0.3,0.3-0.6,0.4-1,0.6
		c-0.5,0.2-0.1,0.5,0.4,0.3c0.2-0.1,0.6-0.3,0.7-0.3c0.9-0.5,1.3-1,1.8-1.9c0.2-0.3,0.9-0.7,0.8-1C272,192.3,271.1,192,270.7,191.7z
		"/>
	<path class="st6" d="M270,191.2l1.9,2.6c0,0,12.2-5.3,13.3-6.7c1.1-1.4,4.7-6.5,5.3-7.9c1.3-3.2,2.9-6.9,0-7.6
		c-1.6-0.4-2.6,0-3.6,2.4c-1.3,3.2-4.2,8.2-5.4,9.8C281.1,184.4,270,191.2,270,191.2z"/>
	<path class="st5" d="M261.4,175.5c-0.2,0.3,0.3,1.5,0.8,1.9c0.4,0.4,0.8,0.3,1.1,0.1c0.4-0.2,0.8-0.3,0.9-0.5
		c0.1-0.9-0.7-0.2-1.1-0.1c0,0,1-0.5,1-0.9c0-0.8-1.2,0.1-1.6,0.3c0.3-0.1,0.9-0.5,0.9-0.6c0.2-0.2,0.1-0.4,0-0.5
		c-0.3-0.2-1.3,0.5-1.3,0.5c0.2-0.1,0.9-0.4,0.6-0.8c-0.2-0.2-0.5,0-0.7,0C261.8,175.1,261.5,175.3,261.4,175.5z"/>
	<path class="st5" d="M263.7,175.5c-0.1,0-0.2-0.1-0.3-0.1c0,0,0,0,0,0c0-0.3-1.2-0.4-1.4-0.5c-0.8-0.4-0.5-0.9-0.1-0.8
		c0.2,0.1,0.8,0.2,1,0.3c0.2,0.1,0.6,0.1,0.8,0.1c0.2,0,0.8,0.6,1,0.7C265,175.5,264.1,175.7,263.7,175.5z"/>
</g>
<path class="st1" d="M178.3,184.5c-0.3,0.7,2,2.2,5.1,3.3c3.1,1.1,5.8,1.5,6,0.8c0.3-0.7-2-2.2-5.1-3.3
	C181.2,184.2,178.5,183.8,178.3,184.5z"/>
<path class="st1" d="M183.9,170.7c-0.3,0.7,1.9,2.3,4.9,3.6c3,1.3,5.7,1.8,6,1.1c0.3-0.7-1.9-2.3-4.9-3.6
	C186.8,170.5,184.1,170,183.9,170.7z"/>
<path class="st1" d="M179.7,221.4c0.2,0.7,2.9,0.5,6-0.5c3.1-1,5.5-2.3,5.3-3c-0.2-0.7-2.9-0.5-6,0.5
	C181.9,219.3,179.5,220.7,179.7,221.4z"/>
<path class="st1" d="M185.4,236.3c0.3,0.7,3,0.2,6-1c3-1.2,5.3-2.8,5-3.4c-0.3-0.7-3-0.2-6,1C187.4,234.1,185.1,235.6,185.4,236.3z"
	/>
<path class="st1" d="M176.6,203.1c0,0.7,2.7,1.2,6,1c3.3-0.2,5.9-0.9,5.8-1.6c0-0.7-2.7-1.2-6-1
	C179.2,201.6,176.5,202.4,176.6,203.1z"/>
<g>
	<polygon class="st2" points="312.2,220.7 311.6,219.3 288.6,219.3 289.1,220.7 	"/>
	<polygon class="st2" points="315.1,228.1 314.6,226.7 291.4,226.8 291.9,228.2 	"/>
	<polygon class="st2" points="308.5,213.4 308,212 285,211.8 285.5,213.2 	"/>
	<polygon class="st2" points="318.1,235.7 317.5,234.2 294.2,234.4 294.7,235.8 	"/>
	<polygon class="st2" points="321.2,243.3 320.6,241.9 297.1,242.1 297.6,243.6 	"/>
	<polygon class="st2" points="324.2,251.1 323.7,249.6 300,250 300.6,251.5 	"/>
	<polygon class="st2" points="327.4,259 326.8,257.5 303,258 303.6,259.6 	"/>
	<path class="st2" d="M306.8,271.3l0.1,0c0.7,0,1.2-0.7,1-1.4l-22.3-60c-0.1-0.4-0.6-0.7-1-0.7l0,0c-0.7,0-1.2,0.6-1,1.2l22.2,60.2
		C305.9,271,306.4,271.3,306.8,271.3z"/>
	<path class="st2" d="M330.2,271.3l0.1,0c0.7,0,1.2-0.7,1-1.4l-22.3-60c-0.1-0.4-0.6-0.7-1-0.7l0,0c-0.7,0-1.2,0.6-1,1.2l22.2,60.2
		C329.3,271,329.8,271.3,330.2,271.3z"/>
</g>
<g>
	<path class="st6" d="M140.5,135.9c0,0-2.4,8.8-3.6,10.2c-1.2,1.4-5.1,3.5-5.1,3.5l1,1.8c0,0,7.1-3.6,8.3-6.6
		c0.7-1.7,1.2-3.2,1.4-4.5c0.2-1.1,1-3.8,0.6-4.9C142.9,134.8,141.1,134.4,140.5,135.9z"/>
	<path class="st11" d="M140.5,135.9c0,0-2.4,8.8-3.6,10.2c-1.2,1.4-5.1,3.5-5.1,3.5l1,1.8c0,0,7.1-3.6,8.3-6.6
		c0.7-1.7,1.2-3.2,1.4-4.5c0.2-1.1,1-3.8,0.6-4.9C142.9,134.8,141.1,134.4,140.5,135.9z"/>
	<path class="st2" d="M116.2,177.7l-1.8-1.7c0,0-7.2-0.5-7.6,0.1c-0.4,0.6,6.8,4,7.7,4C115.4,180.1,116,178.4,116.2,177.7z"/>
	<path class="st5" d="M129.3,153.5c0,0-6.8-1.7-7.3-0.6c-0.6,1.1-7.6,23.2-7.6,23.2l1.8,1.7c0,0,7.5-18.6,9.7-20.5
		C128.1,155.2,130.3,154.3,129.3,153.5z"/>
	<path class="st7" d="M129.3,153.5c0,0-6.8-1.7-7.3-0.6c-0.6,1.1-7.6,23.2-7.6,23.2l1.8,1.7c0,0,7.5-18.6,9.7-20.5
		C128.1,155.2,130.3,154.3,129.3,153.5z"/>
	<g>
		<path class="st5" d="M132.8,149.4c-0.5-0.1-0.9-0.3-1.4-0.6c-0.4-0.2-0.7-0.4-1.2-0.3c-0.3,0-2.9,1.1-2.2,1.6
			c0.2,0.2,0.8-0.1,1-0.2c0.3-0.1,0.6-0.3,0.9-0.4c-0.3,0-1.7,0.6-1.5,0.9c0.3,0.6,1.7-0.2,2-0.4c-0.3,0-1.1,0.4-1.1,0.7
			c0,0.5,1,0.1,1.3,0c0.2-0.1,0.3-0.2,0.5-0.2c0.2,0,0.4,0.1,0.6,0.1c0.4,0.1,0.7,0.1,1.1,0c0.2,0,0.7,0,0.8-0.2
			c0.1-0.2,0-0.6-0.1-0.8C133.2,149.5,133,149.5,132.8,149.4z"/>
		<path class="st7" d="M132.8,149.4c-0.5-0.1-0.9-0.3-1.4-0.6c-0.4-0.2-0.7-0.4-1.2-0.3c-0.3,0-2.9,1.1-2.2,1.6
			c0.2,0.2,0.8-0.1,1-0.2c0.3-0.1,0.6-0.3,0.9-0.4c-0.3,0-1.7,0.6-1.5,0.9c0.3,0.6,1.7-0.2,2-0.4c-0.3,0-1.1,0.4-1.1,0.7
			c0,0.5,1,0.1,1.3,0c0.2-0.1,0.3-0.2,0.5-0.2c0.2,0,0.4,0.1,0.6,0.1c0.4,0.1,0.7,0.1,1.1,0c0.2,0,0.7,0,0.8-0.2
			c0.1-0.2,0-0.6-0.1-0.8C133.2,149.5,133,149.5,132.8,149.4z"/>
	</g>
	<g>
		<polygon class="st2" points="121,137.7 119.4,138.4 124.9,151.6 126.5,150.7 		"/>
		<rect x="125.9" y="150.5" class="st2" width="10.4" height="1.6"/>
	</g>
	<path class="st2" d="M154.8,143c-1.4-0.8-1.6-1.7-0.9-4.6c0.8-2.9-1.2-5.9-3.2-6.7c-1.4-0.6-2.7-0.8-3.5-2.4
		c-0.9-1.5,0.8-4.8-2-7.2c-2-1.8-4.9-0.4-4.9-0.4c-0.6-0.3-0.9,3.3-0.9,6c3.5,5.3,2.5,12.3,1.2,18.2c0,0.1-0.1,0.3-0.1,0.4
		c0.3,4.6,0.5,8.4,0.5,8.4s8.4,4.7,14.1,0.7C160.8,151.4,157.6,144.6,154.8,143z"/>
	<path class="st2" d="M130.2,176.6l-2.1,1.2c0,0-2.6,6.7-2.1,7.3c0.5,0.6,5.8-5.3,6.1-6.2C132.2,178,130.8,177,130.2,176.6z"/>
	<path class="st5" d="M132.9,153.1c0,0-13.6,1-14.9,2.2c-1.3,1.2,10.3,22.4,10.3,22.4l1.9-1.1c0,0-2.9-10.1-3.6-12.4
		c-0.7-2.3-2.2-5.2-1.9-5.5c0.3-0.4,14,1.7,13.9-2.2C138.5,152.6,132.9,153.1,132.9,153.1z"/>
	<path class="st5" d="M139.6,130.1c0,0,1.4,3.9,0.6,6.8l4.8-1.2c0,0-2-6.5-2.8-7.6C141.3,127,139.6,130.1,139.6,130.1z"/>
	<path class="st7" d="M141.6,133.6c1.6,0,2.4,1.2,2.5,2.4l0.9-0.2c0,0-2-6.5-2.8-7.6c-0.8-1.1-2.5,2-2.5,2s0.6,1.8,0.8,3.8
		C140.8,133.7,141.1,133.6,141.6,133.6z"/>
	<path class="st5" d="M139.1,125c0,0-1.9,0.9-2.3,1.6s-0.1,1.8-0.1,2.5c0,0.7-0.2,1.7-0.1,1.9c0.1,0.2,0.8,0,0.9,0.1
		c0.1,0.1,1,0.7,1.3,1.3c0.3,0.6,0.6,0.7,1.3,0.4c0.6-0.3,3.1-3.6,3.2-5.1C143.3,126.2,141,124.4,139.1,125z"/>
	<path class="st2" d="M140.7,122.9c0,0-0.9,1.7-1,2.4c-0.1,0.7,0.6,2.7,1,3c0.4,0.3,0.1-2.3,1-1.5c1,0.8-0.1,2.2,0,2.5
		c0.1,0.3,0.5,1.3,1.5,1.3c1,0.1,2.7-5,1.6-6.2C143.7,123.3,141.9,122.9,140.7,122.9z"/>
	<path class="st2" d="M140.9,121.9c0,0-1.6-1.2-3.3,0.1c-1.7,1.4-1.6,3.4-3,3.3c0,0,0.9,2.4,3,1.8
		C139.5,126.6,141.6,123.3,140.9,121.9z"/>
	<path class="st2" d="M146.4,148.9l-6.3-0.5c0,0-3.3,3.7-6.5,3.7c-3.2,0-11.1,0-11.1,0s0.6,5.1,3.3,8.7c0,0,10.6,0.3,15.7-0.1
		S151.5,154.7,146.4,148.9z"/>
	<path class="st12" d="M125.4,152.9c1.6-0.2,3.2-0.5,4.8-0.7h-7C123.8,152.5,124.2,153,125.4,152.9z"/>
	<path class="st6" d="M144.3,133.5c0,0-2.9,1.1-3.9,1.2c0,0-2,4.5-2.8,5.7c-0.8,1.2,2,5.9,2.2,7.9c0,0,1.7,1.6,6.8,0.6
		C146.6,149.1,147.9,136.4,144.3,133.5z"/>
	<path class="st11" d="M145.1,136.2c-0.9-0.4-2.4,0-2.9,0.9c-0.5,1.1,0,3.1-0.1,4.3c-0.1,1.3-0.1,2.9-0.5,4.1
		c-0.2,1-0.9,2.1-1.7,3.1c0.7,0.4,2.6,1.2,6.5,0.4c0,0,0.8-7.7-0.5-12.5C145.7,136.5,145.4,136.3,145.1,136.2z"/>
	<path class="st5" d="M133.8,149.4c-0.5-0.1-0.9-0.3-1.4-0.6c-0.4-0.2-0.7-0.4-1.2-0.3c-0.3,0-2.9,1.1-2.2,1.6
		c0.2,0.2,0.8-0.1,1-0.2c0.3-0.1,0.6-0.3,0.9-0.4c-0.3,0-1.7,0.6-1.5,0.9c0.3,0.6,1.7-0.2,2-0.4c-0.3,0-1.1,0.4-1.1,0.7
		c0,0.5,1,0.1,1.3,0c0.2-0.1,0.3-0.2,0.5-0.2c0.2,0,0.4,0.1,0.6,0.1c0.4,0.1,0.7,0.1,1.1,0c0.2,0,0.7,0,0.8-0.2
		c0.1-0.2,0-0.6-0.1-0.8C134.2,149.5,134,149.5,133.8,149.4z"/>
	<path class="st6" d="M133.3,149.4l0.6,2.1c0,0,13.7-1.6,14-4c0.3-2.4-0.6-13.7-3.9-12.6c-3.3,1.2,0,9.4-0.6,10
		C143,145.5,133.3,149.4,133.3,149.4z"/>
</g>
<g>
	<path class="st6" d="M297.6,73.8c0,0-4,1-7,3.2c-3,2.2-6.2,9.2-6.8,14c-0.6,4.9-1.8,8.7,0,11.2c1.8,2.5,7.8,3,13,3.5
		c5.1,0.5,12.2-0.7,13.7-2.5c1.4-1.8,1.3-15.3-1.4-20.5S301.5,73.7,297.6,73.8z"/>
	<path class="st9" d="M304.4,102.9c-1-0.3-2.1-0.7-3-1.4c-1.8-1.5-2.9-2-5.2-1.9c-2.1,0-4.1,0-5.9-1.2c-1.6-1.1-2.5-3.4-2.1-5.3
		c0.3-1.3,0.7-2.4,1.5-3.5c1.2-1.6,1.4-2.7,1-4.6c-0.5-2.3-0.6-4.3,0.1-6.6c0.4-1.2,1.2-2.1,2.1-2.8c-0.8,0.4-1.7,0.9-2.5,1.5
		c-3,2.2-6.2,9.2-6.8,14c-0.6,4.9-1.8,8.7,0,11.2c1.8,2.5,7.8,3,13,3.5c5.1,0.5,12.2-0.7,13.7-2.5c0.3-0.3,0.5-1.1,0.6-2.2
		C309.3,102.7,307,103.8,304.4,102.9z"/>
	<path class="st6" d="M297,74.8c0,0-4.3-1-4.9-4.3c-0.6-3.3,1.1-4.4,2.5-3.7c1.3,0.8,1.5,0.3,2.5-0.2c0.9-0.6,2.3,0.4,2.9,1.3
		c0.7,1,0.8-0.2,2.4-0.3c1.6-0.1,2.1,1.3,1.3,3.3C302.8,72.8,302,74.9,297,74.8z"/>
	<g>
		<g>
			<g>
				<path class="st9" d="M301.7,72.9c-1.1,0.3-0.5-1.2-0.6-1.7c-0.3,0-0.4,0.5-0.5,0.7c-0.2,0.5-0.7,0.8-1.2,0.8
					c-0.7,0-0.8-0.8-1.1-1.2c-0.1-0.2-0.2-0.2-0.3,0c-0.1,0.3,0,0.6-0.2,0.8c-0.4,0.4-1.2-0.1-1.5-0.4c-0.4-0.3-0.5-0.9-0.9-1.2
					c-0.1,0.1-0.1,0.2-0.1,0.3c-0.1,0.5-0.1,1.4-0.8,1.2c-0.7-0.1-1.1-1.2-1.3-1.7c-0.2-0.6-0.5-1.4-0.5-2c0-0.3,0-0.6,0.1-0.9
					c0-0.2,0.1-0.5,0.2-0.7l0,0c-0.6,0.5-1,1.7-0.7,3.5c0.5,2.8,3.7,4,4.6,4.2c0.2,0.1,0.3,0.1,0.5,0.1c3.9,0,5.2-1.4,5.9-2.9
					c0,0,0,0,0,0C303.2,71.9,302.1,72.8,301.7,72.9z"/>
			</g>
		</g>
	</g>
	<g>
		<g>
			<path class="st1" d="M298.8,84.5c2.1,0.2,4,1.2,4,3.3l-3.5-0.1c0-0.8-0.8-1-1.3-1c-0.3,0-1.4,0-1.4,0.6c0,1.5,6.5,0.1,6.4,4.2
				c0,2.5-2,3.3-4.4,3.5l0.1,2.6l-2.2,0l0.2-2.6c-2.2-0.3-4.2-1.3-4.2-3.6l3.5,0.1l0,0.1c0,1,1.1,1.2,1.6,1.2c0.5,0,1.6,0,1.6-0.7
				c0-1.5-6.5-0.2-6.4-4.2c0-2.3,1.8-3.1,4-3.3l-0.1-2.6l2.2,0L298.8,84.5z"/>
		</g>
	</g>
	<path class="st2" d="M293.9,73.2l-0.4,2.1c0,0,1.1,1.1,4.1,1.1s4.6-1.1,4.6-1.1l-0.2-1.9C302,73.4,297.9,74.5,293.9,73.2z"/>
</g>
<polygon class="st13" points="332.2,21 329.4,21 329.4,18.2 327.8,18.2 327.8,21 325,21 325,22.5 327.8,22.5 327.8,25.3 329.4,25.3 
	329.4,22.5 332.2,22.5 "/>
<polygon class="st13" points="222.6,49.1 219.8,49.1 219.8,46.3 218.2,46.3 218.2,49.1 215.4,49.1 215.4,50.7 218.2,50.7 
	218.2,53.5 219.8,53.5 219.8,50.7 222.6,50.7 "/>
<polygon class="st13" points="352,69.8 349.2,69.8 349.2,67 347.6,67 347.6,69.8 344.8,69.8 344.8,71.4 347.6,71.4 347.6,74.2 
	349.2,74.2 349.2,71.4 352,71.4 "/>
<polygon class="st13" points="360.2,145.4 357.4,145.4 357.4,142.6 355.8,142.6 355.8,145.4 353,145.4 353,147 355.8,147 
	355.8,149.8 357.4,149.8 357.4,147 360.2,147 "/>
<polygon class="st13" points="259,2.8 256.2,2.8 256.2,0 254.6,0 254.6,2.8 251.8,2.8 251.8,4.4 254.6,4.4 254.6,7.2 256.2,7.2 
	256.2,4.4 259,4.4 "/>
<polygon class="st13" points="75.8,123.5 73,123.5 73,120.7 71.4,120.7 71.4,123.5 68.6,123.5 68.6,125.1 71.4,125.1 71.4,127.9 
	73,127.9 73,125.1 75.8,125.1 "/>
<g>
	<path class="st1" d="M114.8,212.1c11.7,5.6,9,4.7,10.9,5.2c1.9,0.5,13.1,1.2,13.1,1.2l1.2,4.8c0,0-13.7-0.7-15.6-1.2
		c-1.9-0.4-9.7-3.4-9.7-3.4L114.8,212.1z"/>
	<path class="st10" d="M133.8,218.8c-0.3,0.6-1,1-1.8,1c-1.9-0.1-3.7-0.1-5.5-0.4c-1-0.1-2.1-0.3-3.1-0.6c-1.8-0.6-3.7-1.2-5.4-2
		c-0.9-0.4-2-0.6-3-1l0,2.9c0,0,7.9,3,9.7,3.4c1.9,0.4,15.6,1.2,15.6,1.2l-1.2-4.8C137.2,218.7,135.5,218.8,133.8,218.8z"/>
	<path class="st2" d="M113.2,268.9c0,0-0.5,1.5-0.5,2.6c0,1.1,0.1,2.3,0.4,2.6c0.7,0.6,9.4,0.6,10.1-0.2c0.7-0.8,0.2-2.1-1.6-2.6
		c-2-0.5-2.3-0.3-3.5-0.7c-1.2-0.5-0.9-1.9-0.9-1.9L113.2,268.9z"/>
	<path class="st2" d="M94.1,267.3c0,0-1,1.2-1.4,2.2c-0.4,1-0.8,2.2-0.5,2.6c0.4,0.8,8.6,3.9,9.5,3.4c0.9-0.5,1-1.9-0.6-3
		c-1.7-1.2-2-1.1-3-1.9c-1-0.9-0.2-2.1-0.2-2.1L94.1,267.3z"/>
	<path class="st2" d="M113.2,231.9l-11.7,1.3c0,0,10.5,16.8,11.3,19.5c0.8,2.7-0.3,17.3-0.3,17.3h5.3c0,0,1.1-17.3,0.9-18.6
		C118.4,250.1,113.2,231.9,113.2,231.9z"/>
	<path class="st2" d="M112.7,232.8H99.3c0,0-1.6,4.1-0.8,7.2c0.7,3.1,1.2,9.8,1.1,11c-0.1,1.2-6.6,16.8-6.6,16.8l4.9,1.8
		c0,0,6.7-14.9,7.4-16.6C105.9,251.3,112.7,232.8,112.7,232.8z"/>
	<path class="st5" d="M112.2,205c-1.1,0.1-2.2,0-3.2-0.3c-0.4-0.1-0.7-0.2-1.1-0.4c-0.1,1.3-0.5,4.5-1.6,5.7c0,0,0.2,1.6,2.9,2
		c2.8,0.4,3.4-1.7,3.4-1.7S112,207,112.2,205z"/>
	<path class="st7" d="M106.2,210.1c0,0,0,0.1,0,0.1c0,0,0,0,0,0c0,0.1,0,0.1,0.1,0.2c0,0,0,0,0,0c0,0.1,0.1,0.1,0.1,0.2c0,0,0,0,0,0
		c0.1,0.2,0.2,0.3,0.5,0.5c0,0,0,0,0,0c0.1,0.1,0.2,0.2,0.4,0.2c0,0,0,0,0.1,0c0.1,0.1,0.3,0.2,0.5,0.2c0.2-0.7,0.5-1.4,1.1-1.9
		c1-0.9,2.1-1.4,3.4-1.4c-0.1-1.1-0.2-2.4-0.1-3.4c-1.1,0.1-2.2,0-3.2-0.3c-0.4-0.1-0.7-0.2-1.1-0.4
		C107.7,205.8,107.3,208.9,106.2,210.1C106.2,210.1,106.2,210.1,106.2,210.1C106.2,210.1,106.2,210.1,106.2,210.1z"/>
	<path class="st5" d="M107.6,197c0,0,4.7-1.1,5.3,0c0.7,1.1,0.5,2.9,0.7,3.7c0.3,0.8,1.4,1.7,1.5,2c0.1,0.3-0.8,0.9-0.9,1.1
		c-0.1,0.2-0.7,2.8-1.5,3.4c-0.8,0.5-5-1.2-6-3.3C105.7,202,106.4,197.6,107.6,197z"/>
	<path class="st1" d="M112.5,209.9c0,0-3.3,1.6-5.9-0.3c0,0-5.1,0.9-5.7,1.1c-0.5,0.2,0.8,7.4,0.3,11c-0.6,3.6-2.9,12.4-2.9,12.4
		s6.2,4.8,16.8,1.8c0,0,0.3-12.3,0.2-15.7c-0.2-5-0.2-8-0.2-8S113.9,211,112.5,209.9z"/>
	<path class="st10" d="M104.8,229.8c-0.5-1.9-0.8-3.8-0.5-5.7c0.4-2.1-1.2-4.9-1.5-7.1c-0.3-2.3-0.5-3.9-2.1-5.2
		c0.1,2.2,0.8,7.1,0.4,9.9c-0.6,3.6-2.9,12.4-2.9,12.4s3.9,3,10.9,2.7C106.4,235.2,105.5,233,104.8,229.8z"/>
	<path class="st2" d="M109.7,197.7c0,0,0.1,1.1-0.6,2.4c-0.3,0.5,1,2.1,0.6,2.7c-0.3,0.4-0.6,0.3-0.9-0.6c-0.1-0.3-0.4-0.5-0.7-0.7
		c-1.1-0.5-1.4,1.2-0.5,1.7c0.7,0.4,0.2,2.2,0.2,2.2c-0.8,0.5-3.3-0.3-2.9-2.1c0.2-1.2,0.3-1.6-0.1-1.9c-0.7-0.5-1.6-2-0.3-3.2
		c1.8-1.6,0.2-2.2,2.2-2.6C108.6,195.2,110.1,196.5,109.7,197.7z"/>
	<path class="st2" d="M106.3,196.6c0.1-0.4,0.9-0.9,1.3-1.2c0.6-0.4,1.3-0.7,2-0.8c0.7-0.2,1.5-0.1,2.2,0c0.6,0.1,1.1,0.5,1.8,0.6
		c0.6,0.1,1.2,0.1,1.6-0.2c0.1,0.4,0.1,1.2,0,1.5c-0.1,0.6-0.5,1.1-0.9,1.6c-1,1.3-3.6,2-5.3,1.2c-0.8-0.4-1.6-0.7-2-1.5
		C106.8,197.2,106.6,196.9,106.3,196.6z"/>
	<g>
		<g>
			<path class="st1" d="M94.4,262.1c-0.4,0.1-0.8,0.2-1.2,0.2c-0.2,0-0.3,0-0.5,0c-0.7,0-1.4,0.1-2.1-0.2c-1.4-0.5-2.1-1.4-2.4-3.1
				c-0.3-1.5,0.1-3.1,1.1-4.4c0.5-0.6,1-1,1.5-1.4l0.2-0.1c0.7-0.5,1.1-1.4,1.5-2.3l0.1-0.1c0.1-0.4,0.3-0.7,0.4-1.1
				c0.1-0.3,0.2-0.5,0.3-0.8c1.3-3.5,4.9-4.9,7.8-5.5l0.1,0.6c-2.7,0.6-6.2,1.9-7.4,5.1c-0.1,0.3-0.2,0.5-0.3,0.8
				c-0.1,0.4-0.2,0.7-0.4,1.1l-0.1,0.1c-0.4,0.9-0.8,1.9-1.7,2.5l-0.2,0.1c-0.6,0.4-1,0.7-1.4,1.2c-0.9,1.2-1.3,2.6-1,4
				c0.3,1.5,0.9,2.2,2.1,2.7c0.6,0.2,1.2,0.2,1.9,0.2c0.2,0,0.4,0,0.5,0c1.2,0,2.1-0.6,3.1-1.2c0.6-0.3,1.2-0.7,1.8-0.9
				c1.4-0.6,2.5-1.6,3.2-3.2l0.1-0.1c1-2.1,1.7-3.8,3.5-5.5l0.3-0.2c1.3-1.2,2.1-2,2.3-3.8c0.2-1.7-0.5-3.5-1.5-4.2
				c-0.7-0.5-1.5-0.6-2.5-0.2l-0.2-0.5c1.4-0.6,2.5-0.2,3.1,0.3c1.4,1,1.9,3.2,1.7,4.8c-0.2,2-1.2,3-2.5,4.2l-0.3,0.2
				c-1.7,1.6-2.4,3.2-3.3,5.3l-0.1,0.1c-0.8,1.8-1.9,2.9-3.5,3.5c-0.6,0.2-1.2,0.6-1.7,0.9C95.9,261.5,95.2,261.9,94.4,262.1z"/>
		</g>
		<g>
			<path class="st6" d="M147.1,216.1l-41.2,12c-1.2,0.4-2.3,1.1-3.1,2l-5.1,6.5c-1.2,1.5-1.6,3.6-1.1,5.5l0.7,2.5
				c0.6,1.9,2,3.4,3.9,4l7.8,2.7c1.2,0.4,2.5,0.4,3.7,0.1l41.2-12c3.2-0.9,5.1-4.3,4.1-7.5l-3.4-11.7
				C153.7,217,150.3,215.2,147.1,216.1z M109.7,242.7c-2.9,3.3-7.7,0.6-6.5-3.6c0.1-0.3,0.2-0.6,0.4-0.8c2.9-3.3,7.7-0.6,6.5,3.6
				C110.1,242.2,109.9,242.5,109.7,242.7z"/>
			<g>
				<path class="st1" d="M117.1,242.8l-1.8-10l2.5-0.7c0.4-0.1,0.7-0.2,1-0.2c0.3,0,0.6,0,0.9,0c0.3,0,0.5,0.1,0.7,0.3
					c0.2,0.1,0.4,0.4,0.5,0.6c0.1,0.2,0.2,0.4,0.2,0.6c0,0.1,0.1,0.3,0.1,0.5c0.2,1.2-0.1,2-1.1,2.5c1-0.1,1.7,0.4,2.1,1.5
					c0,0.1,0.1,0.3,0.1,0.4c0.2,1,0.1,1.8-0.3,2.4c-0.4,0.6-1.1,1.1-2,1.3L117.1,242.8z M118.8,240.8l0.6-0.2c0.5-0.1,0.8-0.4,1-0.7
					c0.2-0.3,0.2-0.7,0.1-1.3c0-0.1-0.1-0.3-0.1-0.4c-0.1-0.4-0.3-0.6-0.5-0.8c-0.3-0.2-0.6-0.2-1.2-0.1l-0.5,0.1L118.8,240.8z
					 M117.9,236.3l0.5-0.1c0.5-0.1,0.8-0.4,1-0.6c0.1-0.3,0.2-0.7,0.1-1.2c0-0.1,0-0.2-0.1-0.2c-0.1-0.3-0.3-0.5-0.5-0.6
					c-0.3-0.1-0.7-0.1-1.2,0.1l-0.3,0.1L117.9,236.3z"/>
				<path class="st1" d="M123.9,240.8l-1.8-10l2.4-0.7c0.4-0.1,0.8-0.2,1.1-0.2c0.3,0,0.6,0,0.9,0c0.3,0,0.5,0.1,0.7,0.3
					c0.2,0.2,0.4,0.4,0.5,0.6c0.1,0.2,0.2,0.4,0.2,0.6c0,0.1,0.1,0.3,0.1,0.5c0.1,0.6,0.1,1.2,0,1.6c-0.1,0.5-0.4,0.9-0.8,1.2
					l2.3,4.5l-1.9,0.6l-2-4.2l-0.7,0.2l0.8,4.5L123.9,240.8z M124.8,234.5l0.5-0.1c0.5-0.1,0.8-0.4,1-0.6c0.2-0.3,0.2-0.7,0.1-1.2
					c0-0.1-0.1-0.2-0.1-0.3c-0.1-0.3-0.2-0.5-0.4-0.7c-0.2-0.2-0.6-0.2-1-0.1l-0.6,0.2L124.8,234.5z"/>
				<path class="st1" d="M130.3,239l0.1-10.6l2.1-0.6l3.7,9.5l-1.8,0.5l-0.8-2.1l-1.6,0.5l0,2.3L130.3,239z M132,234.8l1.2-0.3
					l-1.3-3.8L132,234.8z"/>
				<path class="st1" d="M137.2,237l-1.8-10l1.4-0.4l3.2,4.7l-1-5.3l1.6-0.5l1.8,10l-1.3,0.4l-3.2-5l1,5.6L137.2,237z"/>
				<path class="st1" d="M143.8,235l-1.8-10l2.3-0.7c0.6-0.2,1.1-0.3,1.6-0.3c0.4,0,0.8,0.1,1.1,0.3c0.3,0.2,0.5,0.5,0.7,0.8
					c0.1,0.2,0.2,0.4,0.2,0.6c0.1,0.2,0.1,0.5,0.2,0.8l0.7,3.6c0.1,0.8,0.2,1.4,0.1,1.9c-0.1,0.5-0.4,1-0.8,1.3
					c-0.4,0.4-1,0.7-1.8,0.9L143.8,235z M145.5,233.1l0.4-0.1c0.2,0,0.3-0.1,0.4-0.2c0.1-0.1,0.2-0.1,0.3-0.2
					c0.1-0.1,0.1-0.1,0.2-0.2c0-0.1,0.1-0.2,0.1-0.3c0-0.1,0-0.2,0-0.3c0-0.1,0-0.3,0-0.4c0-0.1,0-0.3-0.1-0.5l-0.7-4
					c0-0.2-0.1-0.4-0.1-0.6c0-0.1-0.1-0.2-0.1-0.3c-0.1-0.2-0.2-0.3-0.4-0.4c-0.2-0.1-0.5,0-0.8,0.1l-0.4,0.1L145.5,233.1z"/>
			</g>
		</g>
		<g>
			<path class="st1" d="M107,242.8c-0.1,0.2-0.2,0.3-0.4,0.5c0.6,0.9,0.9,2.2,0.8,3.5c-0.1,0.7-0.4,1.6-0.9,2.3
				c-0.3,0.5-0.7,0.8-1,1.1c0.2,0.1,0.4,0.2,0.5,0.3c0.2-0.3,0.6-0.6,0.9-1c0.5-0.8,1-1.8,1-2.6C108.1,245.6,107.8,244,107,242.8z"
				/>
		</g>
	</g>
	<path class="st5" d="M142.3,217.9c-0.7-0.9-2.1-0.8-3-0.5c-0.7,0.3-0.7,1.1-0.8,2.2c-0.1,0.8-0.1,1.5,0.1,1.7
		c0.9,0.7,0.9-1.9,1.1-2.5c0,0-0.3,2.7,0.1,2.9c0.9,0.4,0.9-2.1,1-2.7c-0.2,0.6-0.2,1.7-0.1,1.8c0,0.5,0.4,0.4,0.5,0.3
		c0.5-0.3,0.4-2.3,0.4-2.3c0,0.4-0.3,1.7,0.3,1.4c0.4-0.2,0.4-0.8,0.5-1.1C142.5,218.7,142.4,218.1,142.3,217.9z"/>
	<path class="st5" d="M103.7,229.7c0.9,0,2,0.1,3,0.1c0.4,0,0.9-0.1,1.3-0.1c0.3,0,0.8-0.1,1,0.2c0.2,0.3-0.4,0.5-0.6,0.5
		c-0.3,0.1-1,0-1,0.4c-0.1,0.6,1,0.8,1.5,1c0.4,0.2,1.5,0.6,0.8,1c-0.5,0.3-1.5-0.3-1.9-0.5c0.5,0.1,1,0.3,1.5,0.6
		c0.3,0.2,0.8,0.4,0.8,0.7c0,0.5-1,0.2-1.3,0.1c-0.6-0.3-0.7-0.3-1.1-0.6c0.4,0.2,2,0.9,1.5,1.4c-0.3,0.3-1.5-0.6-2-0.8
		c0.3,0.2,1.1,0.4,1,0.9c0,0.3-0.5,0.1-0.7-0.1c-0.3-0.2-0.6-0.4-0.9-0.6c-0.2-0.1-0.4-0.3-0.7-0.4c-0.6-0.4-1-0.5-1.5-1
		c-0.4-0.5-0.9-1-1.3-1.4C103.9,230.8,103,230.2,103.7,229.7z"/>
	<path class="st1" d="M105,229.5l-1.3,3c0,0-13.5-4.4-12.8-7.9c0.6-3.1,8.4-13.5,10.1-13.9c2.3-0.5,3.2,5,1.9,6.3
		c-2.8,2.8-6.7,6.7-6.4,7.4C96.8,225,105,229.5,105,229.5z"/>
</g>
<path class="st3" d="M52.3,154.5c0.1-0.5,0.1-1,0.1-1.5c0-0.5,0-1-0.1-1.5l-2.3-0.4c-0.1-0.3-0.2-0.7-0.3-1l1.8-1.5
	c-0.4-0.9-0.9-1.8-1.5-2.5l-2.2,0.8c-0.2-0.3-0.5-0.5-0.7-0.7l0.8-2.2c-0.8-0.6-1.6-1.1-2.5-1.5l-1.5,1.8c-0.3-0.1-0.7-0.2-1-0.3
	l-0.4-2.3c-0.5-0.1-1-0.1-1.5-0.1c-0.5,0-1,0-1.5,0.1l-0.4,2.3c-0.3,0.1-0.7,0.2-1,0.3l-1.5-1.8c-0.9,0.4-1.8,0.9-2.5,1.5l0.8,2.2
	c-0.3,0.2-0.5,0.5-0.7,0.7l-2.2-0.8c-0.6,0.8-1.1,1.6-1.5,2.5l1.8,1.5c-0.1,0.3-0.2,0.7-0.3,1l-2.3,0.4c-0.1,0.5-0.1,1-0.1,1.5
	c0,0.5,0,1,0.1,1.5l2.3,0.4c0.1,0.3,0.2,0.7,0.3,1l-1.8,1.5c0.4,0.9,0.9,1.8,1.5,2.5l2.2-0.8c0.2,0.3,0.5,0.5,0.7,0.7l-0.8,2.2
	c0.8,0.6,1.6,1.1,2.5,1.5l1.5-1.8c0.3,0.1,0.7,0.2,1,0.3l0.4,2.3c0.5,0.1,1,0.1,1.5,0.1c0.5,0,1,0,1.5-0.1l0.4-2.3
	c0.3-0.1,0.7-0.2,1-0.3l1.5,1.8c0.9-0.4,1.8-0.9,2.5-1.5l-0.8-2.2c0.3-0.2,0.5-0.5,0.7-0.7l2.2,0.8c0.6-0.8,1.1-1.6,1.5-2.5
	l-1.8-1.5c0.1-0.3,0.2-0.7,0.3-1L52.3,154.5z M41.2,158.9c-3.3,0-5.9-2.6-5.9-5.9c0-3.3,2.6-5.9,5.9-5.9c3.2,0,5.9,2.6,5.9,5.9
	C47.1,156.3,44.4,158.9,41.2,158.9z"/>
<g>
	<path class="st2" d="M41.2,146.4c-3.7,0-6.6,3-6.6,6.6c0,3.7,3,6.6,6.6,6.6c3.7,0,6.6-3,6.6-6.6C47.8,149.4,44.8,146.4,41.2,146.4z
		 M41.2,157.2c-2.3,0-4.1-1.8-4.1-4.1c0-2.3,1.8-4.1,4.1-4.1c2.3,0,4.1,1.8,4.1,4.1C45.3,155.3,43.5,157.2,41.2,157.2z"/>
</g>
<path class="st3" d="M344,50.6c0.1-0.5,0.1-1,0.1-1.5c0-0.5,0-1-0.1-1.5l-2.3-0.4c-0.1-0.3-0.2-0.7-0.3-1l1.8-1.5
	c-0.4-0.9-0.9-1.8-1.5-2.5l-2.2,0.8c-0.2-0.3-0.5-0.5-0.7-0.7l0.8-2.2c-0.8-0.6-1.6-1.1-2.5-1.5l-1.5,1.8c-0.3-0.1-0.7-0.2-1-0.3
	l-0.4-2.3c-0.5-0.1-1-0.1-1.5-0.1c-0.5,0-1,0-1.5,0.1l-0.4,2.3c-0.3,0.1-0.7,0.2-1,0.3l-1.5-1.8c-0.9,0.4-1.8,0.9-2.5,1.5l0.8,2.2
	c-0.3,0.2-0.5,0.5-0.7,0.7l-2.2-0.8c-0.6,0.8-1.1,1.6-1.5,2.5l1.8,1.5c-0.1,0.3-0.2,0.7-0.3,1l-2.3,0.4c-0.1,0.5-0.1,1-0.1,1.5
	c0,0.5,0,1,0.1,1.5l2.3,0.4c0.1,0.3,0.2,0.7,0.3,1l-1.8,1.5c0.4,0.9,0.9,1.8,1.5,2.5l2.2-0.8c0.2,0.3,0.5,0.5,0.7,0.7L326,58
	c0.8,0.6,1.6,1.1,2.5,1.5l1.5-1.8c0.3,0.1,0.7,0.2,1,0.3l0.4,2.3c0.5,0.1,1,0.1,1.5,0.1c0.5,0,1,0,1.5-0.1l0.4-2.3
	c0.3-0.1,0.7-0.2,1-0.3l1.5,1.8c0.9-0.4,1.8-0.9,2.5-1.5l-0.8-2.2c0.3-0.2,0.5-0.5,0.7-0.7l2.2,0.8c0.6-0.8,1.1-1.6,1.5-2.5
	l-1.8-1.5c0.1-0.3,0.2-0.7,0.3-1L344,50.6z M332.9,55c-3.3,0-5.9-2.6-5.9-5.9c0-3.3,2.6-5.9,5.9-5.9c3.2,0,5.9,2.6,5.9,5.9
	C338.7,52.3,336.1,55,332.9,55z"/>
<g>
	<path class="st2" d="M332.9,42.5c-3.7,0-6.6,3-6.6,6.6c0,3.7,3,6.6,6.6,6.6c3.7,0,6.6-3,6.6-6.6C339.5,45.4,336.5,42.5,332.9,42.5z
		 M332.9,53.2c-2.3,0-4.1-1.8-4.1-4.1c0-2.3,1.8-4.1,4.1-4.1c2.3,0,4.1,1.8,4.1,4.1C337,51.4,335.1,53.2,332.9,53.2z"/>
</g>
<g>
	<path class="st6" d="M218,33.9c0.2-0.5,0.5-1,0.7-1.5c0.2-0.5,0.3-1,0.4-1.5l-2.2-1.2c0.1-0.4,0.1-0.8,0.1-1.1l2.4-0.8
		c-0.1-1.1-0.3-2.1-0.6-3.2l-2.5,0.1c-0.1-0.4-0.3-0.7-0.5-1l1.6-1.9c-0.6-0.9-1.3-1.7-2.1-2.5l-2.1,1.3c-0.3-0.2-0.6-0.5-0.9-0.7
		l0.5-2.5c-0.5-0.2-1-0.5-1.5-0.7c-0.5-0.2-1-0.3-1.5-0.4l-1.2,2.2c-0.4-0.1-0.8-0.1-1.1-0.1l-0.8-2.4c-1.1,0.1-2.1,0.3-3.2,0.6
		l0.1,2.5c-0.4,0.1-0.7,0.3-1,0.5l-1.9-1.6c-0.9,0.6-1.7,1.3-2.5,2.1l1.3,2.1c-0.2,0.3-0.5,0.6-0.7,0.9l-2.5-0.5
		c-0.2,0.5-0.5,1-0.7,1.5c-0.2,0.5-0.3,1-0.4,1.5l2.2,1.2c-0.1,0.4-0.1,0.8-0.1,1.1l-2.4,0.8c0.1,1.1,0.3,2.1,0.6,3.2l2.5-0.1
		c0.1,0.4,0.3,0.7,0.5,1l-1.6,1.9c0.6,0.9,1.3,1.7,2.1,2.5l2.1-1.3c0.3,0.2,0.6,0.5,0.9,0.7l-0.5,2.5c0.5,0.2,1,0.5,1.5,0.7
		c0.5,0.2,1,0.3,1.5,0.4l1.2-2.2c0.4,0.1,0.8,0.1,1.1,0.1l0.8,2.4c1.1-0.1,2.1-0.3,3.2-0.6l-0.1-2.5c0.4-0.1,0.7-0.3,1-0.5l1.9,1.6
		c0.9-0.6,1.7-1.3,2.5-2.1l-1.3-2.1c0.2-0.3,0.5-0.6,0.7-0.9L218,33.9z M205,34.4c-3.3-1.2-5.1-4.9-3.9-8.2c1.2-3.3,4.9-5.1,8.2-3.9
		c3.3,1.2,5.1,4.9,3.9,8.2C212,33.8,208.3,35.5,205,34.4z"/>
	<g>
		<path class="st2" d="M209.6,21.5c-3.7-1.3-7.9,0.6-9.2,4.4c-1.3,3.7,0.6,7.9,4.4,9.2c3.7,1.3,7.9-0.6,9.2-4.4
			C215.3,27,213.3,22.9,209.6,21.5z M205.7,32.5c-2.3-0.8-3.5-3.4-2.7-5.7c0.8-2.3,3.4-3.5,5.7-2.7c2.3,0.8,3.5,3.4,2.7,5.7
			C210.6,32.2,208,33.4,205.7,32.5z"/>
	</g>
</g>
</svg>
