<?xml version="1.0" encoding="utf-8"?>
<!-- Generator: Adobe Illustrator 16.0.0, SVG Export Plug-In . SVG Version: 6.00 Build 0)  -->
<!DOCTYPE svg PUBLIC "-//W3C//DTD SVG 1.1//EN" "http://www.w3.org/Graphics/SVG/1.1/DTD/svg11.dtd">
<svg version="1.1" id="Layer_1" xmlns="http://www.w3.org/2000/svg" xmlns:xlink="http://www.w3.org/1999/xlink" x="0px" y="0px"
	 width="98px" height="98px" viewBox="413 413 98 98" enable-background="new 413 413 98 98" xml:space="preserve">
<path fill="#FFFFFF" d="M511.55,441.812c-0.229-5.207-1.071-8.786-2.278-11.889c-1.244-3.292-3.158-6.24-5.666-8.691
	c-2.451-2.488-5.418-4.422-8.673-5.647c-3.12-1.206-6.681-2.048-11.888-2.277c-5.246-0.249-6.912-0.307-20.217-0.307
	s-14.971,0.058-20.197,0.287c-5.207,0.229-8.786,1.072-11.888,2.278c-3.293,1.244-6.241,3.158-8.691,5.666
	c-2.489,2.451-4.422,5.418-5.647,8.673c-1.207,3.121-2.049,6.681-2.278,11.888c-0.249,5.246-0.307,6.911-0.307,20.217
	c0,13.305,0.058,14.971,0.287,20.197c0.229,5.207,1.072,8.786,2.278,11.889c1.245,3.292,3.178,6.24,5.667,8.691
	c2.45,2.488,5.417,4.422,8.672,5.647c3.121,1.206,6.681,2.048,11.889,2.277c5.226,0.23,6.892,0.287,20.197,0.287
	c13.305,0,14.971-0.057,20.196-0.287c5.208-0.229,8.787-1.071,11.889-2.277c6.586-2.547,11.793-7.754,14.339-14.339
	c1.206-3.121,2.049-6.682,2.278-11.889c0.229-5.227,0.287-6.893,0.287-20.197C511.799,448.703,511.779,447.038,511.55,441.812z
	 M502.725,481.823c-0.211,4.786-1.015,7.37-1.685,9.093c-1.646,4.27-5.035,7.658-9.305,9.305c-1.723,0.67-4.326,1.474-9.093,1.684
	c-5.169,0.23-6.72,0.287-19.795,0.287s-14.646-0.057-19.796-0.287c-4.785-0.21-7.37-1.014-9.093-1.684
	c-2.125-0.785-4.059-2.029-5.628-3.657c-1.628-1.589-2.872-3.503-3.657-5.628c-0.67-1.723-1.474-4.326-1.684-9.094
	c-0.23-5.168-0.288-6.72-0.288-19.795s0.058-14.646,0.288-19.795c0.21-4.786,1.014-7.37,1.684-9.093
	c0.785-2.126,2.029-4.059,3.677-5.629c1.588-1.628,3.502-2.872,5.628-3.656c1.723-0.67,4.326-1.474,9.093-1.685
	c5.169-0.229,6.72-0.287,19.795-0.287c13.095,0,14.646,0.058,19.796,0.287c4.785,0.211,7.37,1.015,9.093,1.685
	c2.125,0.784,4.059,2.028,5.628,3.656c1.628,1.589,2.872,3.503,3.657,5.629c0.67,1.723,1.474,4.326,1.685,9.093
	c0.229,5.169,0.287,6.72,0.287,19.795S502.954,476.654,502.725,481.823z"/>
<path fill="#FFFFFF" d="M462.828,436.834c-13.898,0-25.175,11.276-25.175,25.175s11.276,25.175,25.175,25.175
	c13.899,0,25.175-11.276,25.175-25.175S476.728,436.834,462.828,436.834z M462.828,478.339c-9.017,0-16.33-7.313-16.33-16.33
	c0-9.018,7.313-16.33,16.33-16.33c9.018,0,16.33,7.313,16.33,16.33C479.158,471.025,471.846,478.339,462.828,478.339z"/>
<path fill="#FFFFFF" d="M494.876,435.839c0,3.245-2.632,5.877-5.878,5.877s-5.877-2.632-5.877-5.877
	c0-3.246,2.631-5.877,5.877-5.877S494.876,432.593,494.876,435.839z"/>
</svg>
