<?xml version="1.0" encoding="UTF-8" standalone="no"?>
<svg width="55.0333mm" height="17.1979mm"
 xmlns="http://www.w3.org/2000/svg" xmlns:xlink="http://www.w3.org/1999/xlink"  version="1.2" baseProfile="tiny">
<desc>Created by EvoPdf</desc>
<defs>
</defs>
<g fill="none" stroke="black" stroke-width="1" fill-rule="evenodd" stroke-linecap="square" stroke-linejoin="bevel" >

<g fill="#000000" fill-opacity="1" stroke="#000000" stroke-opacity="1" stroke-width="1" stroke-linecap="square" stroke-linejoin="miter" stroke-miterlimit="2" transform="matrix(1,0,0,1,0,0)"
>
</g>

<g fill="#000000" fill-opacity="1" stroke="#000000" stroke-opacity="1" stroke-width="1" stroke-linecap="square" stroke-linejoin="miter" stroke-miterlimit="2" transform="matrix(1,0,0,1,0,0)"
>
</g>

<g fill="#000000" fill-opacity="1" stroke="#000000" stroke-opacity="1" stroke-width="1" stroke-linecap="square" stroke-linejoin="miter" stroke-miterlimit="2" transform="matrix(1,0,0,1,0,0)"
>
</g>

<g fill="#000000" fill-opacity="1" stroke="#000000" stroke-opacity="1" stroke-width="1" stroke-linecap="square" stroke-linejoin="miter" stroke-miterlimit="2" transform="matrix(1,0,0,1,0,0)"
>
</g>

<g fill="#000000" fill-opacity="1" stroke="#000000" stroke-opacity="1" stroke-width="1" stroke-linecap="square" stroke-linejoin="miter" stroke-miterlimit="2" transform="matrix(0.999969,0,0,0.999969,8.00306,8)"
>
</g>

<g fill="#000000" fill-opacity="1" stroke="#000000" stroke-opacity="1" stroke-width="1" stroke-linecap="square" stroke-linejoin="miter" stroke-miterlimit="2" transform="matrix(1.75617,0,0,1.75617,9.40882,-6.48579)"
>
</g>

<g fill="#ffffff" fill-opacity="1" stroke="none" transform="matrix(1.75617,0,0,1.75617,9.40882,-6.48579)"
>
<path vector-effect="none" fill-rule="nonzero" d="M14.28,29.72 C13.16,34.4 11.12,39.88 6.08,41.8 C4.68,42.36 2.84,41.76 2.36,41.16 C2.28,41.04 2.2,40.92 2.16,40.76 C1.12,40.64 0.16,40.2 -0.24,39.64 C-0.92,38.8 -0.84,37.52 -0.72,36.48 C-0.0800002,30.68 0.76,25.04 1.68,19.24 C1.8,18.44 2.12,17.84 2.44,17.36 C1.84,17.56 1.08,17.8 -0.0400002,18.08 C0.0799998,14.6 1.4,11.16 2.96,10.08 C5.12,8.56 9.04,7.92 11.32,9.92 C12.32,10.8 13.04,11.96 13.52,13.24 C16.72,17.16 15.36,25.12 14.28,29.72 M12.08,27.64 C13.24,22.72 14.64,14.16 10.68,10.68 C8.84,9.08 5.52,9.52 3.52,10.88 C2.4,11.68 1.16,14.52 1,16.76 C1.68,16.56 3.04,16.04 3.72,16.04 C3.96,16.04 4.32,16.12 4.2,16.56 C4.08,16.92 3.64,17.36 3.4,17.72 C3.08,18.16 2.8,18.68 2.68,19.4 C1.76,25.16 0.920001,30.8 0.240001,36.6 C0.160001,37.48 0.0800007,38.4 0.520001,39.04 C0.920001,39.56 2.68,40.12 4,39.6 C8.92,37.72 10.96,32.36 12.08,27.64 L12.08,27.64 M9.52,21 C9.28,24.48 8.6,29.2 6.4,32.56 C5.84,33.4 5.36,34.16 4.12,34.04 C4.76,27.76 5.32,21.96 6.88,16.12 C9.56,14.52 9.64,19.76 9.52,21 L9.52,21 M8.56,20.12 C7.96,22.88 7.52,25.6 7.16,28.4 C8.04,25.8 8.6,22.68 8.56,20.12 L8.56,20.12 M30.2,11.04 C30.32,12.08 29.44,15.36 28.16,15.92 C27.12,16.36 25.32,16.16 24.04,16.72 C23.72,17.4 23.32,18.64 23,19.96 C23.72,19.8 24.44,19.68 25.4,19.68 C25.68,20.76 25.6,21.8 25.32,22.68 C25.84,22.56 26.36,22.48 26.8,22.48 C27.2,24.24 25.88,26.4 24.72,27.2 C24.08,27.64 22.52,27.92 21.72,28.24 C21.36,29.44 21.08,31.36 20.84,33.12 L23.6,32.28 C23.84,33.52 23.8,34.68 23.6,35.72 C24.08,35.56 24.52,35.4 25,35.28 C25.4,37.2 24.28,39.6 23.44,40.28 C21.88,41.52 18.64,42.24 16.76,41.84 C16.28,41.76 15.84,41.28 15.72,40.76 C15.32,40.72 14.92,40.68 14.6,40.64 C13.64,40.44 12.8,39.4 12.88,38.24 C13.52,31.16 14.76,24.68 16.24,18 C16.4,17.24 16.88,16.72 17.4,16.28 C17.12,16.36 16.8,16.48 16.52,16.56 C16,16.72 15.56,16.8 14.52,16.76 C14.6,14.32 15.8,11.68 17,10.52 C18.44,9.08 26.44,7.8 28.96,8.4 C29,9.04 28.96,10 28.72,10.96 C29.36,10.96 29.88,10.96 30.2,11.04 L30.2,11.04 M28.04,9.2 C26.04,8.88 18.8,10.16 17.68,11.24 C16.72,12.16 15.72,14.36 15.56,15.8 C16.6,15.6 17.68,15 18.72,14.92 C19.68,14.84 19.48,15.6 19.04,16.08 C18.44,16.72 17.44,17.32 17.24,18.2 C15.76,24.84 14.52,31.28 13.88,38.32 C13.84,38.96 14.32,39.56 14.8,39.64 C16.64,40 19.8,39.32 21.32,38.12 C22.08,37.52 23.08,35.32 22.84,33.56 C21.44,33.96 19.68,34.6 18.28,34.6 C18.44,32.8 18.88,28.36 19.56,26.08 C20.36,25.76 21.96,25.48 22.6,25.04 C23.68,24.28 24.92,22.32 24.64,20.68 C24.04,20.72 23.36,20.88 22.64,21.08 C21.84,21.32 21.08,21.56 20.2,21.68 C20.36,19.08 21.24,15.92 21.88,14.56 C22.96,14.12 24.08,14.12 25.24,13.96 C25.56,13.92 25.84,13.84 26.08,13.72 C27.2,13.24 28.04,10.36 28.04,9.2 L28.04,9.2 M44.28,12.96 C40.68,21.84 37.12,33.72 35.96,42 C35.24,42.64 30.84,42.2 29.48,40.6 C27.72,40.16 26.24,39.2 26.28,37.56 C26.36,28.08 26.28,21.8 27.76,12.16 C28.56,10.84 31.96,8.8 34.04,10.68 C33.92,11.24 33.76,11.92 33.64,12.64 C34.24,12.56 34.8,12.64 35.16,12.96 C34.8,14.48 34.4,17 34.04,19.96 C35.52,15 36.88,11.28 38,8.44 C39.8,7.92 43.04,9.04 43.08,11.12 L42.92,11.52 C43.68,11.88 44.28,12.44 44.28,12.96 L44.28,12.96 M42.08,10.96 C42,10.08 39.92,9.04 38.76,9.28 C37,13.68 34.44,20.88 31.84,32.4 C31.68,32.96 30.96,32.88 30.92,31.68 C30.88,25.2 32.08,14.92 32.92,11.04 C31.92,10.32 29.4,11.48 28.72,12.52 C27.28,21.88 27.36,28.16 27.28,37.56 C27.24,39.68 32.76,40.52 33.76,39.88 C34.96,31.6 38.48,19.76 42.08,10.96 L42.08,10.96 M66.88,11.24 C67.04,12.28 66.52,15.64 65.24,16.2 C64.2,16.64 62.36,16.16 61.08,16.72 C58.88,26.24 57.8,32.24 57.04,42.8 C56.12,43.2 54.12,42.48 53.24,41.4 C51.48,41 49.76,39.72 49.96,38.12 C50.28,35.4 51.88,22.84 53.56,18.2 C53.08,18.36 52.68,18.48 52.36,18.56 C52.36,17.96 52.44,17.32 52.56,16.68 C51.68,16.96 50.68,17.28 49.56,17.6 C49.56,14.6 50.32,12.24 51.52,11.04 C53,9.52 62.76,7.92 65.6,8.6 C65.68,9.2 65.68,10.16 65.52,11.2 C66.12,11.16 66.6,11.16 66.88,11.24 L66.88,11.24 M64.68,9.4 C63.2,9.2 60.84,9.64 59.32,9.8 C57.36,10.04 53,10.96 52.24,11.76 C51.32,12.64 50.64,14.56 50.56,16.28 C51.44,16.04 56.04,14.36 56.48,15.28 C56.76,15.88 55.8,16.6 55.4,17 C55.04,17.36 54.72,17.72 54.6,18.2 C52.84,24.88 51.76,31.36 50.96,38.24 C50.8,39.56 53.64,41.04 54.84,40.64 C55.6,30.16 56.68,24.16 58.92,14.56 C60.36,13.92 62.12,14.48 63.16,14 C64.24,13.56 64.8,10.56 64.68,9.4 L64.68,9.4 M79.2,11.04 C79.32,12.08 78.44,15.36 77.16,15.92 C76.12,16.36 74.32,16.16 73.04,16.72 C72.72,17.4 72.32,18.64 72,19.96 C72.72,19.8 73.44,19.68 74.4,19.68 C74.68,20.76 74.6,21.8 74.32,22.68 C74.84,22.56 75.36,22.48 75.8,22.48 C76.2,24.24 74.88,26.4 73.72,27.2 C73.08,27.64 71.52,27.92 70.72,28.24 C70.36,29.44 70.08,31.36 69.84,33.12 L72.6,32.28 C72.84,33.52 72.8,34.68 72.6,35.72 C73.08,35.56 73.52,35.4 74,35.28 C74.4,37.2 73.28,39.6 72.44,40.28 C70.88,41.52 67.64,42.24 65.76,41.84 C65.28,41.76 64.84,41.28 64.72,40.76 C64.32,40.72 63.92,40.68 63.6,40.64 C62.64,40.44 61.8,39.4 61.88,38.24 C62.52,31.16 63.76,24.68 65.24,18 C65.4,17.24 65.88,16.72 66.4,16.28 C66.12,16.36 65.8,16.48 65.52,16.56 C65,16.72 64.56,16.8 63.52,16.76 C63.6,14.32 64.8,11.68 66,10.52 C67.44,9.08 75.44,7.8 77.96,8.4 C78,9.04 77.96,10 77.72,10.96 C78.36,10.96 78.88,10.96 79.2,11.04 L79.2,11.04 M77.04,9.2 C75.04,8.88 67.8,10.16 66.68,11.24 C65.72,12.16 64.72,14.36 64.56,15.8 C65.6,15.6 66.68,15 67.72,14.92 C68.68,14.84 68.48,15.6 68.04,16.08 C67.44,16.72 66.44,17.32 66.24,18.2 C64.76,24.84 63.52,31.28 62.88,38.32 C62.84,38.96 63.32,39.56 63.8,39.64 C65.64,40 68.8,39.32 70.32,38.12 C71.08,37.52 72.08,35.32 71.84,33.56 C70.44,33.96 68.68,34.6 67.28,34.6 C67.44,32.8 67.88,28.36 68.56,26.08 C69.36,25.76 70.96,25.48 71.6,25.04 C72.68,24.28 73.92,22.32 73.64,20.68 C73.04,20.72 72.36,20.88 71.64,21.08 C70.84,21.32 70.08,21.56 69.2,21.68 C69.36,19.08 70.24,15.92 70.88,14.56 C71.96,14.12 73.08,14.12 74.24,13.96 C74.56,13.92 74.84,13.84 75.08,13.72 C76.2,13.24 77.04,10.36 77.04,9.2 L77.04,9.2 M90.24,11.76 C88.96,21.24 87.84,31.36 88.4,40.76 C87.68,41.76 84.24,42.76 83.96,41.64 C83.88,41.36 83.84,41 83.84,40.56 C82.56,40.72 81.36,40.56 81.2,39.84 C81,39 80.96,37.64 81.04,36.2 C80.88,36.24 80.72,36.32 80.56,36.4 C80.16,37.36 79.72,39.4 79.76,40.96 C78.48,41.8 76.2,43.04 75.44,42.36 C75.24,42.2 75.2,41.64 75.28,40.96 C74.24,41.28 73.36,41.36 72.88,40.96 C71.96,40.16 72.88,36.64 73.12,35.52 C74.32,29.92 76.12,23.72 77.92,18.24 C78.04,17.76 78.68,17.24 79.08,16.92 C78.4,17.16 77.52,17.48 76,18.08 C76.16,15.56 77.4,12.16 78.44,11.24 C80.24,9.68 85.32,8.48 89.12,9.08 C89,9.96 88.88,10.8 88.8,11.64 C89.28,11.64 89.8,11.68 90.24,11.76 L90.24,11.76 M88,9.92 C85.16,9.52 80.56,10.72 79.12,12 C78.4,12.6 77.36,15.28 77.12,16.56 C77.6,16.4 80.96,14.96 81.04,16.24 C81.08,16.84 79,18.16 78.84,18.56 C77.08,24 75.32,30.16 74.12,35.76 C73.92,36.52 73.68,37.56 73.56,38.48 C73.44,39.32 73.32,40.04 73.56,40.2 C74.28,40.84 76.32,39.64 77.56,38.84 C77.56,37.28 77.96,35.28 78.4,34.28 C79.48,33.72 80.84,33.32 82.28,33.4 C82,35.88 81.88,38.48 82.16,39.6 C82.44,40.6 85.44,39.6 86.2,38.68 C85.64,29.36 86.72,19.36 88,9.92 L88,9.92 M83.52,17.72 C83.24,21.24 82.76,25.24 82.32,28.76 C81.56,28.84 80.2,29.08 79.24,29.44 C80.04,25.52 81.4,21.28 82.96,17.72 C83.08,17.44 83.56,17.36 83.52,17.72 L83.52,17.72 M113.08,11.44 C111.64,19.64 109.52,31.12 109.08,39.8 C108.52,40.92 105.8,42.24 104.68,42 C104.68,41.44 104.72,40.88 104.8,40.32 C103.8,40.68 102.72,40.84 101.84,40.64 L101.88,39.84 C101.72,40.44 101.6,41.04 101.48,41.6 C100.52,41.6 99.16,41.28 98.32,40.2 C96,39.68 95,38.08 94.52,36.04 C94.08,38.44 93.8,40.8 93.88,42.72 C92.92,42.52 91.72,42.24 90.8,41.24 C89.28,40.76 88.04,40 87.16,38.2 C87.88,28.68 89.48,21.48 91.52,12.64 C92.16,9.84 98,8.84 99.36,10.16 C99.32,10.84 99.28,11.56 99.2,12.28 C99.88,12.24 100.36,12.28 100.56,12.48 C100.36,14.96 100.12,17.96 100.08,20.88 C101.4,17.08 102.92,12.92 104.28,9.92 C106,8.88 109.68,7.48 111.96,9.08 L111.6,11.04 C112.2,11.08 112.72,11.16 113.08,11.44 L113.08,11.44 M105.08,10.6 C103.16,14.88 100.64,21.84 99.32,26.36 C99.16,26.96 98.4,27.28 98.24,26.48 C97.56,22.36 97.92,15.4 98.36,10.56 C97.52,10.12 92.92,10.92 92.48,12.84 C90.48,21.64 88.88,28.8 88.2,38 C89.04,39.72 90.48,40.24 91.68,40.48 C91.6,38.32 92,35.68 92.48,33.08 C92.96,30.36 93.44,27.68 93.84,25.52 C94.08,24.4 94.64,24.2 94.68,24.72 C95.08,27.6 94.96,29.84 95.04,31.84 C95.16,33.84 95.32,35.6 95.92,37.12 C96.56,38.8 98.16,39.36 99.32,39.4 C100.2,35.24 101.84,29.88 103.48,25.6 C103.76,24.84 104.56,24.4 104.48,25.2 C103.96,30.2 103.12,35.56 102.88,39.84 C104,39.88 106.36,38.72 106.88,37.72 C107.32,29.12 109.4,17.72 110.84,9.52 C109.56,8.8 106.6,9.68 105.08,10.6 L105.08,10.6"/>
</g>

<g fill="#000000" fill-opacity="1" stroke="#000000" stroke-opacity="1" stroke-width="1" stroke-linecap="square" stroke-linejoin="miter" stroke-miterlimit="2" transform="matrix(1.75617,0,0,1.75617,9.40882,-6.48579)"
>
</g>

<g fill="#000000" fill-opacity="1" stroke="#000000" stroke-opacity="1" stroke-width="1" stroke-linecap="square" stroke-linejoin="miter" stroke-miterlimit="2" transform="matrix(0.999969,0,0,0.999969,8.00306,8)"
>
</g>

<g fill="#000000" fill-opacity="1" stroke="#000000" stroke-opacity="1" stroke-width="1" stroke-linecap="square" stroke-linejoin="miter" stroke-miterlimit="2" transform="matrix(0.999969,0,0,0.999969,8.00306,8)"
>
</g>

<g fill="#000000" fill-opacity="1" stroke="#000000" stroke-opacity="1" stroke-width="1" stroke-linecap="square" stroke-linejoin="miter" stroke-miterlimit="2" transform="matrix(1,0,0,1,0,0)"
>
</g>

<g fill="#000000" fill-opacity="1" stroke="#000000" stroke-opacity="1" stroke-width="1" stroke-linecap="square" stroke-linejoin="miter" stroke-miterlimit="2" transform="matrix(1,0,0,1,0,0)"
>
</g>

<g fill="#000000" fill-opacity="1" stroke="#000000" stroke-opacity="1" stroke-width="1" stroke-linecap="square" stroke-linejoin="miter" stroke-miterlimit="2" transform="matrix(1,0,0,1,0,0)"
>
</g>

<g fill="#000000" fill-opacity="1" stroke="#000000" stroke-opacity="1" stroke-width="1" stroke-linecap="square" stroke-linejoin="miter" stroke-miterlimit="2" transform="matrix(1,0,0,1,0,0)"
>
</g>

<g fill="#000000" fill-opacity="1" stroke="#000000" stroke-opacity="1" stroke-width="1" stroke-linecap="square" stroke-linejoin="miter" stroke-miterlimit="2" transform="matrix(0.999969,0,0,0.999969,8.00306,8)"
>
</g>

<g fill="#000000" fill-opacity="1" stroke="#000000" stroke-opacity="1" stroke-width="1" stroke-linecap="square" stroke-linejoin="miter" stroke-miterlimit="2" transform="matrix(0.999969,0,0,0.999969,8.00306,8)"
>
</g>

<g fill="#000000" fill-opacity="1" stroke="#000000" stroke-opacity="1" stroke-width="1" stroke-linecap="square" stroke-linejoin="miter" stroke-miterlimit="2" transform="matrix(0.999969,0,0,0.999969,8.00306,8)"
>
</g>

<g fill="#000000" fill-opacity="1" stroke="#000000" stroke-opacity="1" stroke-width="1" stroke-linecap="square" stroke-linejoin="miter" stroke-miterlimit="2" transform="matrix(1,0,0,1,0,0)"
>
</g>

<g fill="#000000" fill-opacity="1" stroke="#000000" stroke-opacity="1" stroke-width="1" stroke-linecap="square" stroke-linejoin="miter" stroke-miterlimit="2" transform="matrix(1,0,0,1,0,0)"
>
</g>

<g fill="#000000" fill-opacity="1" stroke="#000000" stroke-opacity="1" stroke-width="1" stroke-linecap="square" stroke-linejoin="miter" stroke-miterlimit="2" transform="matrix(1,0,0,1,0,0)"
>
</g>

<g fill="#000000" fill-opacity="1" stroke="#000000" stroke-opacity="1" stroke-width="1" stroke-linecap="square" stroke-linejoin="miter" stroke-miterlimit="2" transform="matrix(1,0,0,1,0,0)"
>
</g>

<g fill="#000000" fill-opacity="1" stroke="#000000" stroke-opacity="1" stroke-width="1" stroke-linecap="square" stroke-linejoin="miter" stroke-miterlimit="2" transform="matrix(1,0,0,1,0,0)"
>
</g>

<g fill="#000000" fill-opacity="1" stroke="#000000" stroke-opacity="1" stroke-width="1" stroke-linecap="square" stroke-linejoin="miter" stroke-miterlimit="2" transform="matrix(1,0,0,1,0,0)"
>
</g>
</g>
</svg>
