<svg height="512" viewBox="0 0 256 256" width="512" xmlns="http://www.w3.org/2000/svg"><path d="m181.375 53.854-33.315-33.315h-115.005v203.168h148.32z" fill="#63bce7"/><path d="m148.06 20.539h-18.5l33.315 33.315v169.853h18.5v-169.853z" fill="#63e2e7"/><path d="m33.055 20.539h18.5v203.167h-18.5z" fill="#6377e7"/><path d="m62.69 167.803h19.947v55.904h-19.947z" fill="#9e9e9e"/><path d="m97.241 150.189h19.947v73.518h-19.947z" fill="#f8af23"/><path d="m131.793 139.039h19.947v84.667h-19.947z" fill="#f46275"/><path d="m45.994 53.854h53.34v53.34h-53.34z" fill="#f46275"/><circle cx="72.664" cy="68.777" fill="#9e9e9e" r="8.969"/><path d="m72.664 77.746a12.369 12.369 0 0 1 12.369 12.37v11.125a0 0 0 0 1 0 0h-24.739a0 0 0 0 1 0 0v-11.125a12.369 12.369 0 0 1 12.37-12.37z" fill="#63bce7"/><path d="m45.994 113.953h53.34v5.333h-53.34z" fill="#f8af23"/><path d="m45.994 126.045h53.34v5.333h-53.34z" fill="#f8af23"/><circle cx="181.375" cy="95.424" fill="#9e9e9e" r="41.57"/><path d="m181.375 53.854a41.666 41.666 0 0 0 -9.25 1.046 41.566 41.566 0 0 1 0 81.049 41.569 41.569 0 1 0 9.25-82.094z" fill="#cecece"/><rect fill="#f46275" height="71.228" rx="12.986" width="25.973" x="168.388" y="152.479"/><path d="m181.375 152.479a12.944 12.944 0 0 0 -9.25 3.9 12.939 12.939 0 0 1 3.736 9.085v45.256a12.939 12.939 0 0 1 -3.736 9.085 12.966 12.966 0 0 0 22.236-9.085v-45.255a13.025 13.025 0 0 0 -12.986-12.986z" fill="#f48875"/><path d="m181.375 69.3v26.124h-26.122a26.121 26.121 0 1 0 26.122-26.124z" fill="#f8af23"/><path d="m181.375 69.3a26.121 26.121 0 0 0 -26.121 26.121h26.121z" fill="#f46275"/><g fill="#3f3679"><path d="m25.89 233.961h-18.5a1.5 1.5 0 1 0 0 3h18.5a1.5 1.5 0 0 0 0-3z"/><path d="m248.61 233.961h-18.5a1.5 1.5 0 0 0 0 3h18.5a1.5 1.5 0 0 0 0-3z"/><path d="m215.337 233.961h-174.674a1.5 1.5 0 1 0 0 3h174.674a1.5 1.5 0 0 0 0-3z"/><path d="m7.39 225.207h7.944a1.5 1.5 0 1 0 0-3h-7.944a1.5 1.5 0 1 0 0 3z"/><path d="m240.667 225.207h7.944a1.5 1.5 0 0 0 0-3h-7.944a1.5 1.5 0 0 0 0 3z"/><path d="m82.637 225.207h147.473a1.5 1.5 0 0 0 0-3h-39.943a14.456 14.456 0 0 0 5.694-11.486v-45.256a14.506 14.506 0 0 0 -12.987-14.408v-12.6a43.058 43.058 0 0 0 -.863-86.086l-32.89-32.892a1.5 1.5 0 0 0 -1.061-.439h-115a1.5 1.5 0 0 0 -1.5 1.5v201.667h-5.67a1.5 1.5 0 0 0 0 3zm-18.447-3v-52.907h16.947v52.9zm34.551 0v-70.518h16.947v70.518zm34.551 0v-81.668h16.948v81.667zm59.569-56.741v45.254a11.487 11.487 0 0 1 -22.973 0v-45.255a11.487 11.487 0 0 1 22.973 0zm28.583-70.041a40.116 40.116 0 0 1 -40.066 40.07h-.008a40.07 40.07 0 1 1 40.074-40.07zm-71.884-71.265 28.193 28.194h-28.193zm-115-2.121h112v31.815a1.5 1.5 0 0 0 1.5 1.5h17.553a43.056 43.056 0 0 0 14.261 83.1v12.6a14.506 14.506 0 0 0 -12.986 14.408v45.258a14.456 14.456 0 0 0 5.694 11.486h-19.342v-83.167a1.5 1.5 0 0 0 -1.5-1.5h-19.948a1.5 1.5 0 0 0 -1.5 1.5v83.167h-11.6v-72.017a1.5 1.5 0 0 0 -1.5-1.5h-19.951a1.5 1.5 0 0 0 -1.5 1.5v72.018h-11.6v-54.407a1.5 1.5 0 0 0 -1.5-1.5h-19.951a1.5 1.5 0 0 0 -1.5 1.5v54.4h-26.635z"/><path d="m45.994 108.694h53.34a1.5 1.5 0 0 0 1.5-1.5v-53.34a1.5 1.5 0 0 0 -1.5-1.5h-53.34a1.5 1.5 0 0 0 -1.5 1.5v53.34a1.5 1.5 0 0 0 1.5 1.5zm1.5-53.34h50.34v50.34h-50.34z"/><path d="m78.419 77.513a10.469 10.469 0 1 0 -11.512 0 13.877 13.877 0 0 0 -8.113 12.6v11.125a1.5 1.5 0 0 0 1.5 1.5h24.739a1.5 1.5 0 0 0 1.5-1.5v-11.122a13.877 13.877 0 0 0 -8.114-12.603zm-13.225-8.736a7.469 7.469 0 1 1 7.469 7.47 7.478 7.478 0 0 1 -7.469-7.47zm18.339 30.964h-21.739v-9.625a10.869 10.869 0 1 1 21.738 0z"/><path d="m45.994 120.786h53.34a1.5 1.5 0 0 0 1.5-1.5v-5.333a1.5 1.5 0 0 0 -1.5-1.5h-53.34a1.5 1.5 0 0 0 -1.5 1.5v5.333a1.5 1.5 0 0 0 1.5 1.5zm1.5-5.333h50.34v2.333h-50.34z"/><path d="m99.333 132.878a1.5 1.5 0 0 0 1.5-1.5v-5.333a1.5 1.5 0 0 0 -1.5-1.5h-53.339a1.5 1.5 0 0 0 -1.5 1.5v5.333a1.5 1.5 0 0 0 1.5 1.5zm-51.84-5.333h50.34v2.333h-50.339z"/><path d="m153.753 95.424a27.621 27.621 0 1 0 27.622-27.624 27.652 27.652 0 0 0 -27.622 27.624zm26.121-24.572v23.072h-23.074a24.652 24.652 0 0 1 23.075-23.071zm26.126 24.572a24.622 24.622 0 0 1 -49.2 1.5h24.576a1.5 1.5 0 0 0 1.5-1.5v-24.576a24.653 24.653 0 0 1 23.124 24.576z"/></g></svg>