<?xml version="1.0" encoding="utf-8"?>
<!-- Generator: Adobe Illustrator 16.0.0, SVG Export Plug-In . SVG Version: 6.00 Build 0)  -->
<!DOCTYPE svg PUBLIC "-//W3C//DTD SVG 1.1//EN" "http://www.w3.org/Graphics/SVG/1.1/DTD/svg11.dtd">
<svg version="1.1" id="Layer_1" xmlns="http://www.w3.org/2000/svg" xmlns:xlink="http://www.w3.org/1999/xlink" x="0px" y="0px"
	 width="612px" height="528px" viewBox="0 0 612 528" enable-background="new 0 0 612 528" xml:space="preserve">
<g>
	<g>
		<path fill="#FFFFFF" d="M602.218,241.223L381.203,20.202c-6.31-6.309-14.718-9.772-23.685-9.772
			c-8.976,0-17.38,3.468-23.688,9.772l-20.066,20.071c-6.305,6.299-9.777,14.713-9.777,23.684c0,8.966,3.473,17.664,9.777,23.962
			l128.937,129.222H33.063C14.593,217.141,0,231.6,0,250.073v28.376c0,18.474,14.593,34.391,33.063,34.391h411.102L313.77,442.782
			c-6.305,6.309-9.776,14.494-9.776,23.465c0,8.961,3.473,17.265,9.776,23.569l20.066,20.007c6.309,6.309,14.713,9.747,23.688,9.747
			c8.966,0,17.375-3.483,23.684-9.792l221.015-221.016c6.324-6.329,9.804-14.776,9.777-23.759
			C612.02,255.994,608.547,247.541,602.218,241.223z"/>
	</g>
</g>
</svg>
