<?xml version="1.0" encoding="utf-8"?>
<!-- Generator: Adobe Illustrator 23.0.1, SVG Export Plug-In . SVG Version: 6.00 Build 0)  -->
<svg version="1.1" id="Layer_1" xmlns="http://www.w3.org/2000/svg" xmlns:xlink="http://www.w3.org/1999/xlink" x="0px" y="0px"
	 viewBox="0 0 144.6 145.1" style="enable-background:new 0 0 144.6 145.1;" xml:space="preserve">
<style type="text/css">
	.st0{fill:#99DDCC;}
	.st1{opacity:0.45;}
	.st2{fill:#FFFFFF;}
	.st3{fill:#3939D3;}
	.st4{opacity:0.45;fill:#FFFFFF;}
	.st5{opacity:0.3;}
	.st6{fill:#FEFEFE;}
	.st7{fill:#9090F4;}
	.st8{fill:#2700E8;}
	.st9{fill:#7A74D1;}
	.st10{opacity:0.35;fill:#5851BC;}
	.st11{fill:#EAE6FF;}
	.st12{fill:#110239;}
	.st13{fill:#F2A181;}
	.st14{fill:#5E5DBB;}
	.st15{fill:#B4B4DB;}
	.st16{fill:#6960C4;}
	.st17{fill:#170D54;}
	.st18{fill:#FFBE9D;}
	.st19{fill:#3B2E7A;}
	.st20{fill:#E9E6FF;}
	.st21{fill:#E0D9FF;}
</style>
<path class="st0" d="M4.3,45.6h65.1l-7.8-5.8V4.3c0-2.3-1.9-4.3-4.3-4.3H4.3C1.9,0,0,1.9,0,4.3v37.1C0,43.7,1.9,45.6,4.3,45.6z"/>
<g class="st1">
	
		<rect x="5.7" y="6.6" transform="matrix(-1 -1.224647e-16 1.224647e-16 -1 41.065 16.0562)" class="st2" width="29.8" height="2.8"/>
	
		<rect x="5.7" y="10.9" transform="matrix(-1 -1.224647e-16 1.224647e-16 -1 41.065 24.5619)" class="st2" width="29.8" height="2.8"/>
	
		<rect x="5.7" y="15.1" transform="matrix(-1 -1.224647e-16 1.224647e-16 -1 41.065 33.0677)" class="st2" width="29.8" height="2.8"/>
	
		<rect x="5.7" y="19.3" transform="matrix(-1 -1.224647e-16 1.224647e-16 -1 41.065 41.3555)" class="st2" width="29.8" height="2.8"/>
	
		<rect x="5.7" y="23.4" transform="matrix(-1 -1.224647e-16 1.224647e-16 -1 41.065 49.6433)" class="st2" width="29.8" height="2.8"/>
	
		<rect x="5.7" y="30.9" transform="matrix(-1 -1.224647e-16 1.224647e-16 -1 41.065 64.7034)" class="st2" width="29.8" height="2.8"/>
	
		<rect x="5.7" y="35.4" transform="matrix(-1 -1.224647e-16 1.224647e-16 -1 62.0914 73.6715)" class="st2" width="50.8" height="2.8"/>
</g>
<path class="st3" d="M42.1,28.5h10.1c2.4,0,4.3-1.9,4.3-4.3V10.9c0-2.4-1.9-4.3-4.3-4.3H42.1c-2.4,0-4.3,1.9-4.3,4.3v13.2
	C37.7,26.5,39.7,28.5,42.1,28.5z"/>
<rect x="37.7" y="31.2" transform="matrix(-1 -1.224647e-16 1.224647e-16 -1 94.1809 64.7034)" class="st4" width="18.7" height="2.3"/>
<g>
	<path class="st2" d="M45.2,20.8H52c0.4,0,0.7-0.3,0.8-0.6l1.3-4.8c0.1-0.5-0.3-1.1-0.8-1.1h-9.4c-0.6,0-1,0.5-0.8,1.1l1.3,4.8
		C44.5,20.5,44.9,20.8,45.2,20.8z"/>
	<g>
		<path class="st2" d="M44.1,21.9h8.2c0.1,0,0.2-0.1,0.2-0.2c0-0.1-0.1-0.2-0.2-0.2h-8l-2.8-9.9c0-0.1-0.1-0.1-0.2-0.1h-1.8
			c-0.1,0-0.2,0.1-0.2,0.2s0.1,0.2,0.2,0.2H41l2.8,9.9C43.9,21.8,44,21.9,44.1,21.9z"/>
	</g>
	<g>
		<path class="st2" d="M51,23.2c0,0.5,0.4,1,1,1c0.5,0,1-0.4,1-1s-0.4-1-1-1C51.4,22.2,51,22.7,51,23.2z"/>
		<path class="st2" d="M43.8,23.2c0,0.5,0.4,1,1,1c0.5,0,1-0.4,1-1s-0.4-1-1-1C44.2,22.2,43.8,22.7,43.8,23.2z"/>
	</g>
</g>
<g class="st5">
	<g>
		<g>
			<polyline class="st3" points="59.7,55.3 62.2,52.5 58.7,53.2 			"/>
		</g>
		<path class="st3" d="M50.2,55.9c0,2.8,2.4,5.1,5.4,5.1s5.4-2.3,5.4-5.1c0-2.8-2.4-5.1-5.4-5.1S50.2,53.1,50.2,55.9z"/>
	</g>
	<g>
		<g>
			<g>
				<path class="st6" d="M54.6,58.3c1.1,0,2.1,0,3.1,0c0.3,0,0.6-0.5,0.2-0.7c0.2-0.1,0.3-0.2,0.4-0.3c0.1-0.2,0-0.4-0.2-0.5
					c0.4,0.1,0.5-0.5,0.2-0.7c0.2-0.1,0.3-0.3,0.3-0.5c0-0.2,0-0.4-0.2-0.5C58.3,55,58.1,55,58,55c-0.4,0-0.9,0-1.3,0
					c0.1-0.7,0.2-1.5-0.2-2.1c-0.1-0.2-0.4-0.4-0.6-0.3c-0.2,0.1-0.2,0.5-0.1,0.7c0,0.9-0.4,1.8-1.2,2.2
					C54.5,55.5,54.6,57.4,54.6,58.3z"/>
			</g>
		</g>
		<rect x="52.6" y="55.5" class="st6" width="1.6" height="2.9"/>
	</g>
</g>
<path class="st3" d="M84.7,18.3c1.1-1.4,1.7-3.1,1.7-4.9c0-4.4-3.5-7.9-7.9-7.9c-4.4,0-7.9,3.5-7.9,7.9c0,4.4,3.5,7.9,7.9,7.9
	c1.6,0,3.1-0.5,4.4-1.3l3.1,1.6L84.7,18.3z"/>
<path class="st2" d="M75.2,11.2c0.8-0.7,2-0.7,2.7,0l0.5,0.5l0.5-0.5c0.8-0.8,2-0.7,2.7,0c0.7,0.8,0.7,2,0,2.7l-1.9,1.9c0,0,0,0,0,0
	c-0.3,0.3-0.7,0.5-1.1,0.5c-0.6,0.1-1.2-0.1-1.7-0.6l-1.8-1.9C74.4,13.1,74.4,11.9,75.2,11.2z"/>
<path class="st0" d="M137.6,145.1H84c-3.8,0-6.9-3.1-6.9-6.9V74c0-3.8,3.1-6.9,6.9-6.9h53.6c3.8,0,6.9,3.1,6.9,6.9v64.2
	C144.6,142,141.5,145.1,137.6,145.1z"/>
<g>
	<g>
		<path class="st7" d="M138.6,91.3H85.1c-1,0-1.8-0.8-1.8-1.8V77c0-1,0.8-1.8,1.8-1.8h53.5c1,0,1.8,0.8,1.8,1.8v12.5
			C140.4,90.5,139.6,91.3,138.6,91.3z"/>
		<path class="st7" d="M96.2,107.1H85.1c-1,0-1.8-0.8-1.8-1.8v-6.6c0-1,0.8-1.8,1.8-1.8h11.1c1,0,1.8,0.8,1.8,1.8v6.6
			C98,106.3,97.2,107.1,96.2,107.1z"/>
		<path class="st7" d="M117.4,107.1h-11.1c-1,0-1.8-0.8-1.8-1.8v-6.6c0-1,0.8-1.8,1.8-1.8h11.1c1,0,1.8,0.8,1.8,1.8v6.6
			C119.2,106.3,118.4,107.1,117.4,107.1z"/>
		<path class="st7" d="M138.6,107.1h-11.1c-1,0-1.8-0.8-1.8-1.8v-6.6c0-1,0.8-1.8,1.8-1.8h11.1c1,0,1.8,0.8,1.8,1.8v6.6
			C140.4,106.3,139.6,107.1,138.6,107.1z"/>
		<path class="st7" d="M96.2,123.5H85.1c-1,0-1.8-0.8-1.8-1.8v-6.6c0-1,0.8-1.8,1.8-1.8h11.1c1,0,1.8,0.8,1.8,1.8v6.6
			C98,122.7,97.2,123.5,96.2,123.5z"/>
		<path class="st7" d="M117.4,123.5h-11.1c-1,0-1.8-0.8-1.8-1.8v-6.6c0-1,0.8-1.8,1.8-1.8h11.1c1,0,1.8,0.8,1.8,1.8v6.6
			C119.2,122.7,118.4,123.5,117.4,123.5z"/>
		<path class="st7" d="M96.2,139.8H85.1c-1,0-1.8-0.8-1.8-1.8v-6.6c0-1,0.8-1.8,1.8-1.8h11.1c1,0,1.8,0.8,1.8,1.8v6.6
			C98,139.1,97.2,139.8,96.2,139.8z"/>
		<path class="st7" d="M117.4,139.8h-11.1c-1,0-1.8-0.8-1.8-1.8v-6.6c0-1,0.8-1.8,1.8-1.8h11.1c1,0,1.8,0.8,1.8,1.8v6.6
			C119.2,139.1,118.4,139.8,117.4,139.8z"/>
	</g>
	<path class="st7" d="M138.6,139.8h-11.1c-1,0-1.8-0.8-1.8-1.8v-23c0-1,0.8-1.8,1.8-1.8h11.1c1,0,1.8,0.8,1.8,1.8v23
		C140.4,139.1,139.6,139.8,138.6,139.8z"/>
</g>
<g class="st1">
	<path class="st0" d="M82.3,76c0-1,0.8-1.8,1.8-1.8h53.5c1,0,1.8,0.8,1.8,1.8v12.5c0,1-0.8,1.8-1.8,1.8H84"/>
	<path class="st0" d="M95.2,106.1H84c-1,0-1.8-0.8-1.8-1.8v-6.6c0-1,0.8-1.8,1.8-1.8h11.1c1,0,1.8,0.8,1.8,1.8v6.6
		C97,105.3,96.2,106.1,95.2,106.1z"/>
	<path class="st0" d="M116.4,106.1h-11.1c-1,0-1.8-0.8-1.8-1.8v-6.6c0-1,0.8-1.8,1.8-1.8h11.1c1,0,1.8,0.8,1.8,1.8v6.6
		C118.2,105.3,117.4,106.1,116.4,106.1z"/>
	<path class="st0" d="M137.6,106.1h-11.1c-1,0-1.8-0.8-1.8-1.8v-6.6c0-1,0.8-1.8,1.8-1.8h11.1c1,0,1.8,0.8,1.8,1.8v6.6
		C139.4,105.3,138.6,106.1,137.6,106.1z"/>
	<path class="st0" d="M95.2,122.4H84c-1,0-1.8-0.8-1.8-1.8V114c0-1,0.8-1.8,1.8-1.8h11.1c1,0,1.8,0.8,1.8,1.8v6.6
		C97,121.7,96.2,122.4,95.2,122.4z"/>
	<path class="st0" d="M116.4,122.4h-11.1c-1,0-1.8-0.8-1.8-1.8V114c0-1,0.8-1.8,1.8-1.8h11.1c1,0,1.8,0.8,1.8,1.8v6.6
		C118.2,121.7,117.4,122.4,116.4,122.4z"/>
	<path class="st0" d="M95.2,138.8H84c-1,0-1.8-0.8-1.8-1.8v-6.6c0-1,0.8-1.8,1.8-1.8h11.1c1,0,1.8,0.8,1.8,1.8v6.6
		C97,138,96.2,138.8,95.2,138.8z"/>
	<path class="st0" d="M116.4,138.8h-11.1c-1,0-1.8-0.8-1.8-1.8v-6.6c0-1,0.8-1.8,1.8-1.8h11.1c1,0,1.8,0.8,1.8,1.8v6.6
		C118.2,138,117.4,138.8,116.4,138.8z"/>
</g>
<path class="st8" d="M137.6,138.8h-11.1c-1,0-1.8-0.8-1.8-1.8v-23c0-1,0.8-1.8,1.8-1.8h11.1c1,0,1.8,0.8,1.8,1.8v23
	C139.4,138,138.6,138.8,137.6,138.8z"/>
<path class="st9" d="M125.7,138.1v-23c0-1,0.8-1.8,1.8-1.8h11.1c0.2,0,0.4,0,0.6,0.1c-0.3-0.7-0.9-1.2-1.7-1.2h-11.1
	c-1,0-1.8,0.8-1.8,1.8v23c0,0.8,0.5,1.4,1.2,1.7C125.8,138.5,125.7,138.3,125.7,138.1z"/>
<path class="st10" d="M86.7,77.3l1.8,4.8h7.6c0,0-0.5,20.6-0.6,24.4c0,3.9,3.2,30.5,3.2,30.5h4.4l-0.5-33.5l6.2-17.2
	c0,0,4.7,23,6.6,26.9c1.9,3.9,12.4,23.9,12.4,23.9h4l-10.3-44.1L117,77.5L94.7,67.1l-8,0.8"/>
<ellipse class="st11" cx="111.8" cy="142.9" rx="28.7" ry="3"/>
<path class="st12" d="M96.4,138.6c-0.2,0.5-1.4,1.6-3,2.3c-1.6,0.7-5,1-3.1,1.7c1.9,0.6,4.1,0.2,5.2,0.1c1.1-0.2,2.2-0.2,3.5-0.2
	c1.7,0,1.7-0.1,1.5-2.1C100.2,137.7,97.2,137.1,96.4,138.6z"/>
<path class="st12" d="M127.8,137.6c-0.1,0.5,0.7,2.2-0.7,3.4c-1.4,1.2-4.5,2.5-2.4,2.5c2.1,0,4.1-0.4,5.1-1c1.1-0.5,0.2-1.3,1.5-1.7
	c1.7-0.5,1.4-1.8,0.5-2.6C130.6,135.7,128.1,135.9,127.8,137.6z"/>
<path class="st12" d="M121.2,83c0,0,4.1-12.1-7.6-22.1c0,0-6.3,2.5-11.3,2.8c-4,0.2-6-0.1-6-0.1S96,74.4,96,80.2L121.2,83z"/>
<path class="st12" d="M95.1,103.2c-0.2-5.4,5.6-4.7,7.8-0.7c4.5,8.4-1.7,27.6-2.5,36.8c-0.8,0.3-2.3,0.6-3.1,0.2
	c-0.6-0.3-0.9-1-0.9-1C96.6,127.3,95.3,108.9,95.1,103.2z"/>
<path class="st12" d="M102.7,104c-0.7,2.2-8.2,4.5-7.6-3.5c0.3-3.6,1-23.3,1.1-25.2c0.1-1.9,0.5-4.7,1.4-5
	c4.6-1.7,12.7,4.3,11.5,11.4C108.3,86.4,104.1,99.4,102.7,104z"/>
<path class="st12" d="M114.5,107.1c-1.8-5.1,4.1-6,7.4-2.9c7.8,7.4,8.1,24.7,10,33.7c-1.1,0.7-2.8,1-3.4,1c-0.6,0-0.9-0.5-0.9-0.5
	C124.4,127.6,116.4,112.5,114.5,107.1z"/>
<path class="st12" d="M122.2,105.4c0.2,2.3-6,7.1-8.5-0.6c-1.1-3.4-5.8-23.6-6.3-25.4c-0.6-1.8-0.4-5.6,0.3-6.2
	c3.6-3.3,11.7-0.4,13.3,6.7C122,84.6,121.8,100.6,122.2,105.4z"/>
<g>
	<path class="st13" d="M90,17.2c0.2-0.2,0.4-0.4,0.6-0.7c1.5-1.9,1.7-3.6,3.1-5.8c0.2-0.3,0.5-1.2,1-1.9C95.3,8,96.6,7.1,96.9,7
		C97.6,6.6,97,8,97,8s0.5-0.8,1.1-0.7c0.2,0,0.2,1.2,0.2,1.4c0,1.7-0.4,3.3-1.1,4.8c-0.2,0.3-0.4,0.7-0.4,1.1c0.5,0,0.9-0.3,1.3-0.6
		c0.4-0.3,0.9-0.6,1.4-0.4c-0.1,0.2-0.2,0.4-0.3,0.6c-0.6,1.1-1.2,2.3-2.4,2.8c-0.7,0.3-1.4,0.4-2.1,0.7c-1.2,0.6-1.8,2.1-3,2.7"/>
</g>
<path class="st14" d="M97.1,17.6l-3.5-1.5c-0.3-0.1-0.5-0.5-0.3-0.8l3.1-7.5c0.1-0.3,0.5-0.5,0.8-0.3l3.5,1.5
	c0.3,0.1,0.5,0.5,0.3,0.8l-3.1,7.5C97.8,17.6,97.4,17.7,97.1,17.6z"/>
<rect x="95.1" y="8.3" transform="matrix(0.9226 0.3859 -0.3859 0.9226 12.376 -36.5521)" class="st15" width="4.3" height="8.4"/>
<path class="st9" d="M100.8,24.8c0,0-3,0.2-5.7,1c-4.1,1.2-5.5,3.1-6.9,3.9C91,26.2,94,18.8,94,18.8s-3.7-3-4.1-2.3
	c-0.4,0.7-15.8,18.7-15.4,21.7c0.2,1.2,2,2.4,3.6,2.3c4.4-0.1,9.4-1.7,14.8-3.5C95.2,36.3,96,38,96,38"/>
<path class="st16" d="M88.3,29.7c0,0-1.9,3.9-2.5,4.2c-0.6,0.3,1.4-0.8,2.5-1.9c1.1-1.1,2.6-4.1,2.6-4.1
	C90.3,28,88.3,29.7,88.3,29.7z"/>
<g>
	<path class="st13" d="M94.3,10.7c0.2,0.1,0.2,0.4,0.3,0.6c0.1,0.9,0.3,1.8-0.1,2.6c-0.2,0.5-0.6,1-1,1.3c-0.5,0.4-1,0.8-1.6,1.1"/>
</g>
<g>
	<path class="st17" d="M100.9,4.2c-1,0.3-1.6,1.6-1.9,2.5c-0.4,1.1-0.6,2.3-0.8,3.4c-0.1,0.8-0.2,1.7,0.2,2.4c0.2,0.4,0.4,0.7,0.7,1
		c0.1,0.2,0.3,0.4,0.5,0.5c0.2,0.1,0.4,0.2,0.7,0.1c0.3-0.1,0.4-0.5,0.5-0.8c0.6-2.2,1.2-4.3,2.5-6.2"/>
</g>
<g>
	<path class="st13" d="M99.8,11.1c0-0.7-0.7-1.1-1.4-0.4c-0.5,0.6-0.7,1.7-0.7,2.5c0,1,0.7,1.2,1.4,1.3"/>
</g>
<path class="st9" d="M92.9,28.4c1.3-1.5,5.3-3.9,10.7-3.7c3.7,0.1,13.8,0.7,15,3.2c0.6,1.3,1.2,14.3,0.4,18.8
	c-0.6,3.4-2.3,11.7-2.3,13.7c0,2,1.1,2.9,0.6,3.5c-1.1,1.3-8.9,1.9-12.5,1.9c-3.2,0-8.7-0.9-9-1.9c-0.4-1.5,0.6-1.5,0.8-3.1
	c0.1-1.6,0.5-12.1,0-13.8c-1.1-3.1-1.6-8.1-2.4-10.4C93.4,34.8,91.7,29.8,92.9,28.4z"/>
<path class="st16" d="M116.1,38.9c0.4,0.8,3,5,3,5l0.1,0.5c-0.1,0.9-0.2,1.6-0.3,2.2c-0.6,3.4-2.3,11.7-2.3,13.7c0,2,1,2.8,0.6,3.5
	c-0.9,1.2-15.5,3.9-14.8,0.6c0.1-0.3,12.2-9.6,12.3-9.9c0.6-2.7,1.1-4.6,1.3-6.5C116.7,43.3,115.7,38.1,116.1,38.9z"/>
<path class="st18" d="M100.7,20c0,0,0,4.2-0.2,4.4c-0.2,0.2-1,0.6-1,0.6s0.6,3.7,1.5,3.4c0.9-0.3,7-3.3,7-3.3s-0.9-0.4-0.9-0.7
	c0-0.3,0.8-7,0.8-7"/>
<path class="st18" d="M104.9,4.7c-0.9,0.2-3.2-0.2-3.9,0.7c-0.6,1-1.2,3.3-1.5,3.9c-0.5,1.3-0.8,2.7-1.1,4c-0.5,1.7-1.2,4.9,0.5,6.3
	c0.5,0.4,0.7,0.6,1.3,0.7c0.8,0.1,1.6,0.3,2.4,0.5c1.2,0.2,2.6,0.5,3.8,0.1c1.6-0.5,2.5-2.8,3-4.3l2.4-8.8L104.9,4.7z"/>
<path class="st19" d="M100.5,30.1c0,0-0.4,16.5-1,26.5l2.4,3.3l1.7-4.2c0,0,0.7-12.1-1.6-25.6L100.5,30.1z"/>
<path class="st19" d="M100,28.6l0.1,0.2c0.1,0.4,0.3,0.8,0.5,1.2l0,0l1.5,0.1c0,0,1-0.5,1.1-1.1c0.1-0.6-1.7-1.5-1.7-1.5l-0.2,0.1
	C100.8,27.8,100.3,28.2,100,28.6L100,28.6z"/>
<path class="st2" d="M107.2,23.3c0,0,1,0.6,1.7,1.7c-0.8,1.8-2.5,4.9-4.4,6.3c-0.9-2.4-3-3.8-3-3.8S106.7,26.6,107.2,23.3z"/>
<path class="st2" d="M101.5,27.6c0,0-1.9,0.7-3,2.8c0,0-0.4-2.8,0.4-5.2c0,0,1.2-1.6,1.6-1.6C100.4,25.5,101.5,27.6,101.5,27.6z"/>
<g>
	<path class="st13" d="M101.7,64.4c-1.8,0.3-2.5,1-3.6,2c-0.1,0.1-0.2,0.2-0.2,0.3c0,0.1,0.2,0.2,0.3,0.2c0.9,0.1,1-0.4,1.8-0.7
		c0.5-0.2,1.1-0.5,1.6-0.7"/>
</g>
<g>
	<g>
		<path class="st20" d="M95.5,51l6.5,21c0.2,0.6-0.1,1-0.7,1.1l-13.6,1.2c-0.5,0-1-0.4-1.1-0.9l-7-20.6c-0.2-0.6,0.6-1.4,1.2-1.4
			l13.6-1.2C94.8,50.1,95.3,50.5,95.5,51z"/>
	</g>
	<g>
		<path class="st21" d="M95,51.5l6.4,20.6c0.2,0.6-0.1,1-0.7,1.1l-13.6,1.2c-0.5,0-1-0.4-1.1-0.9l-6.4-20.6c-0.2-0.6,0.1-1,0.7-1.1
			l13.6-1.2C94.4,50.6,94.9,51,95,51.5z"/>
	</g>
	<g>
		<polygon class="st2" points="84.1,50.8 84.6,52.7 91,52.1 90.5,50.3 		"/>
		<g>
			<g>
				<path class="st2" d="M85.3,49.2c0.1,0.4,0.6,2,0.6,2l3-0.3l-0.6-2c-0.3-0.9-1.2-1.5-2-1.5C85.5,47.5,85.1,48.3,85.3,49.2z
					 M86,49.1c-0.2-0.5,0.1-0.9,0.6-1c0.5,0,1,0.3,1.1,0.8c0.2,0.5-0.1,0.9-0.6,1C86.7,50,86.2,49.6,86,49.1z"/>
			</g>
		</g>
	</g>
</g>
<g>
	<path class="st18" d="M106.9,63c-1.4,0.3-5.2,1.4-5.6,1.6c-0.5,0.2-2.1,1.4-2.4,1.8c-1.4,1.4-0.7,2.1-1.3,4.1c0,0.1,0,0.2,0,0.3
		c0,0.2,0.3,0.4,0.6,0.2c0.1,0.3,0.6,0.1,0.8-0.2c0,0.2,0.3,0.3,0.7,0.1c0.2-0.1,0.2-0.1,0.7-0.6c0.4-0.3,0.8-0.6,1.6-0.9
		c0.5-0.2,1.1-0.4,1.5-0.7c0.6-0.4,1.6-0.5,2.1-2.1c0.1-0.4,0.5-0.6,0.8-0.8c0.8-0.5,1.6-1,2.3-1.5"/>
</g>
<path class="st9" d="M115.7,36.1c0.6,2.2,3.1,17.2,3.1,17.2l-14.2,10.3l1.2,3.1c0,0,17-5.7,18.4-9.6c1.3-3.9,1.3-21.5-3.4-27.7
	c-1.5-2-4.5-3-4.5-3"/>
<g>
	<path class="st13" d="M101.1,68.3c0,0-0.1,0.1-0.4,0.3c-0.2,0.2-0.5,0.4-0.7,0.7c-0.2,0.3-0.5,0.6-0.7,0.8
		c-0.2,0.2-0.4,0.3-0.4,0.3s0.3-0.7,0.9-1.3c0.2-0.3,0.6-0.5,0.8-0.7C101,68.4,101.1,68.3,101.1,68.3z"/>
</g>
<g>
	<path class="st13" d="M100.4,67.4c0,0-0.2,0.2-0.4,0.5c-0.1,0.1-0.2,0.3-0.4,0.5c-0.1,0.1-0.1,0.2-0.2,0.3
		c-0.1,0.1-0.1,0.2-0.2,0.3c-0.4,0.9-1,1.7-1,1.7s0.1-0.2,0.2-0.6c0.1-0.3,0.4-0.8,0.6-1.2c0.2-0.5,0.6-0.8,0.8-1.1
		C100.1,67.5,100.4,67.4,100.4,67.4z"/>
</g>
<g>
	<path class="st13" d="M99.5,66.6c0,0-0.1,0.2-0.3,0.5c-0.1,0.1-0.2,0.3-0.4,0.5c-0.1,0.2-0.2,0.4-0.3,0.6c-0.2,0.4-0.3,0.9-0.5,1.2
		c-0.1,0.3-0.2,0.6-0.2,0.6s0-0.2,0.1-0.6c0.1-0.4,0.2-0.8,0.4-1.2c0.1-0.2,0.2-0.4,0.3-0.6c0.1-0.2,0.3-0.3,0.4-0.4
		C99.3,66.8,99.5,66.6,99.5,66.6z"/>
</g>
<g>
	<path class="st19" d="M110.3,15c-0.6-0.3-1-0.7-1.3-0.1c-0.2,0.3-0.3,0.7-0.6,0.8c-0.3,0.1-0.7-0.2-0.7-0.5c-0.1-0.3,0-0.7,0.1-1
		c0.2-0.7,0.4-1.4,0.7-2.2c0.2-0.7,0.4-1.5,0.2-2.2c-0.1-0.3-0.4-0.6-0.7-0.9c-0.9-0.8-2.1-1.2-3.3-1.4c-1.2-0.2-2.4-0.4-3.6-0.7
		c-0.5-0.2-1-0.4-1.4-0.7c-0.6-0.5-1-1.4-1-2.2c0-0.8,0.3-1.6,0.7-2.3c0.1,0.3,0.2,0.6,0.4,0.8c0.1-0.4,0.4-0.7,0.7-1
		c0.3,1.9,8.5,1.3,10.4,2.1c1.3,0.6,2.4,1,2.4,3.1c0,0.1,0.2,0.2,0.3,0.3c1.2,1.1,1.7,2.4,1.8,4.3c0.2,2.4-1.2,4.9-2.6,6.9
		c-0.3,0.5-0.5,0.8-1,1.2c-0.5,0.4-1.3,0.5-1.9,0.4c-0.6-0.1-1.7-0.1-1.8-0.7c0-0.4,0.9-1.2,1.2-1.5"/>
</g>
<g>
	<path class="st18" d="M108.2,17.2c0,0-0.1,0.4,0.2,0.7c0.2,0.3,0.7,0.2,1,0.1c0.9-0.3,1.5-1.1,1.6-2c0.2-1-0.4-2.1-1.3-1.8
		c-0.5,0.2-0.9,0.8-0.9,1.4"/>
</g>
<g>
	<path class="st13" d="M100.7,20.4l2.6,0.5c0,0-0.9,1-2.6,1"/>
</g>
</svg>
