<?xml version="1.0" encoding="utf-8"?>
<!-- Generator: Adobe Illustrator 16.0.0, SVG Export Plug-In . SVG Version: 6.00 Build 0)  -->
<!DOCTYPE svg PUBLIC "-//W3C//DTD SVG 1.1//EN" "http://www.w3.org/Graphics/SVG/1.1/DTD/svg11.dtd">
<svg version="1.1" id="Capa_1" xmlns="http://www.w3.org/2000/svg" xmlns:xlink="http://www.w3.org/1999/xlink" x="0px" y="0px"
	 width="123.5px" height="101.327px" viewBox="488.5 543.298 123.5 101.327" enable-background="new 488.5 543.298 123.5 101.327"
	 xml:space="preserve">
<g>
	<g>
		<path fill="#FFFFFF" d="M612,556.979c-4.55,1.996-9.398,3.318-14.453,3.961c5.2-3.104,9.169-7.983,11.035-13.864
			c-4.849,2.891-10.202,4.933-15.907,6.072c-4.604-4.902-11.165-7.938-18.322-7.938c-13.888,0-25.068,11.272-25.068,25.091
			c0,1.988,0.169,3.9,0.582,5.721c-20.854-1.018-39.308-11.013-51.704-26.238c-2.164,3.755-3.434,8.053-3.434,12.68
			c0,8.687,4.474,16.388,11.143,20.846c-4.03-0.076-7.984-1.246-11.334-3.089c0,0.076,0,0.176,0,0.275
			c0,12.189,8.695,22.314,20.098,24.647c-2.042,0.558-4.268,0.825-6.577,0.825c-1.605,0-3.227-0.092-4.749-0.428
			c3.251,9.934,12.473,17.236,23.439,17.474c-8.534,6.676-19.371,10.698-31.102,10.698c-2.058,0-4.03-0.092-6.003-0.344
			c11.111,7.165,24.28,11.257,38.481,11.257c46.158,0,71.395-38.236,71.395-71.38c0-1.108-0.038-2.18-0.092-3.242
			C604.406,566.47,608.589,562.058,612,556.979z"/>
	</g>
</g>
</svg>
